<svg xmlns="http://www.w3.org/2000/svg" xmlns:xlink="http://www.w3.org/1999/xlink" width="500" zoomAndPan="magnify" viewBox="0 0 375 374.999991" height="500" preserveAspectRatio="xMidYMid meet" version="1.2"><defs><clipPath id="89d6bf37a1"><path d="M 5.257812 0 L 177.757812 0 L 177.757812 373.5 L 5.257812 373.5 Z M 5.257812 0 "/></clipPath><clipPath id="6f7353f847"><path d="M 5.257812 2.652344 L 175.425781 2.652344 L 175.425781 370.902344 L 5.257812 370.902344 Z M 5.257812 2.652344 "/></clipPath><clipPath id="3c24a8ce42"><path d="M 0.734375 121.386719 L 4.5 121.386719 L 4.5 373.71875 L 0.734375 373.71875 Z M 0.734375 121.386719 "/></clipPath><clipPath id="aa3a2bc7ee"><path d="M 1.5 121.402344 L 3.75 121.402344 C 4.164062 121.402344 4.5 121.738281 4.5 122.152344 L 4.5 372.957031 C 4.5 373.371094 4.164062 373.707031 3.75 373.707031 L 1.5 373.707031 C 1.085938 373.707031 0.75 373.371094 0.75 372.957031 L 0.75 122.152344 C 0.75 121.738281 1.085938 121.402344 1.5 121.402344 Z M 1.5 121.402344 "/></clipPath><clipPath id="b6d229f7e0"><path d="M 68.265625 337.15625 L 73.535156 337.15625 L 73.535156 342.425781 L 68.265625 342.425781 Z M 68.265625 337.15625 "/></clipPath><clipPath id="a5affaf475"><path d="M 70.898438 337.15625 C 69.445312 337.15625 68.265625 338.335938 68.265625 339.789062 C 68.265625 341.246094 69.445312 342.425781 70.898438 342.425781 C 72.355469 342.425781 73.535156 341.246094 73.535156 339.789062 C 73.535156 338.335938 72.355469 337.15625 70.898438 337.15625 Z M 70.898438 337.15625 "/></clipPath></defs><g id="bffc4b5a5c"><g style="fill:#eab464;fill-opacity:1;"><g transform="translate(50.806602, 341.921699)"><path style="stroke:none" d="M 9.390625 0 L 1.703125 0 C 1.460938 0 1.34375 -0.109375 1.34375 -0.328125 L 1.34375 -1.75 C 1.34375 -1.976562 1.460938 -2.09375 1.703125 -2.09375 L 3.8125 -2.09375 L 3.8125 -17.90625 L 1.703125 -17.90625 C 1.460938 -17.90625 1.34375 -18.015625 1.34375 -18.234375 L 1.34375 -19.65625 C 1.34375 -19.875 1.460938 -19.984375 1.703125 -19.984375 L 15.984375 -19.984375 C 16.222656 -19.984375 16.34375 -19.875 16.34375 -19.65625 L 16.34375 -15.171875 C 16.34375 -14.929688 16.222656 -14.8125 15.984375 -14.8125 L 14.484375 -14.8125 C 14.253906 -14.8125 14.140625 -14.929688 14.140625 -15.171875 L 14.140625 -17.90625 L 6.234375 -17.90625 L 6.234375 -11 L 12.78125 -11 C 13.019531 -11 13.140625 -10.890625 13.140625 -10.671875 L 13.140625 -9.25 C 13.140625 -9.019531 13.019531 -8.90625 12.78125 -8.90625 L 6.234375 -8.90625 L 6.234375 -2.09375 L 9.390625 -2.09375 C 9.609375 -2.09375 9.71875 -1.976562 9.71875 -1.75 L 9.71875 -0.328125 C 9.71875 -0.109375 9.609375 0 9.390625 0 Z M 9.390625 0 "/></g></g><g style="fill:#eab464;fill-opacity:1;"><g transform="translate(68.486032, 341.921699)"><path style="stroke:none" d=""/></g></g><g style="fill:#eab464;fill-opacity:1;"><g transform="translate(77.200459, 341.921699)"><path style="stroke:none" d="M 8.96875 0 L 1.703125 0 C 1.460938 0 1.34375 -0.109375 1.34375 -0.328125 L 1.34375 -1.75 C 1.34375 -1.976562 1.460938 -2.09375 1.703125 -2.09375 L 3.8125 -2.09375 L 3.8125 -17.90625 L 1.703125 -17.90625 C 1.460938 -17.90625 1.34375 -18.015625 1.34375 -18.234375 L 1.34375 -19.65625 C 1.34375 -19.875 1.460938 -19.984375 1.703125 -19.984375 L 10.28125 -19.984375 C 12.238281 -19.984375 13.84375 -19.410156 15.09375 -18.265625 C 16.351562 -17.128906 16.984375 -15.59375 16.984375 -13.65625 C 16.984375 -11.71875 16.367188 -10.210938 15.140625 -9.140625 C 13.921875 -8.078125 12.195312 -7.546875 9.96875 -7.546875 L 6.234375 -7.546875 L 6.234375 -2.09375 L 8.96875 -2.09375 C 9.1875 -2.09375 9.296875 -1.976562 9.296875 -1.75 L 9.296875 -0.328125 C 9.296875 -0.109375 9.1875 0 8.96875 0 Z M 6.234375 -9.515625 L 9.859375 -9.515625 C 12.972656 -9.515625 14.53125 -10.890625 14.53125 -13.640625 C 14.53125 -15.066406 14.085938 -16.132812 13.203125 -16.84375 C 12.328125 -17.550781 11.222656 -17.90625 9.890625 -17.90625 L 6.234375 -17.90625 Z M 6.234375 -9.515625 "/></g></g><g style="fill:#eab464;fill-opacity:1;"><g transform="translate(95.520242, 341.921699)"><path style="stroke:none" d="M 20.71875 -10.09375 C 20.71875 -7.039062 19.800781 -4.5625 17.96875 -2.65625 C 16.144531 -0.757812 13.84375 0.1875 11.0625 0.1875 C 8.289062 0.1875 5.976562 -0.769531 4.125 -2.6875 C 2.269531 -4.601562 1.34375 -7.078125 1.34375 -10.109375 C 1.34375 -13.148438 2.296875 -15.582031 4.203125 -17.40625 C 6.117188 -19.238281 8.398438 -20.15625 11.046875 -20.15625 C 13.703125 -20.15625 15.976562 -19.238281 17.875 -17.40625 C 19.769531 -15.582031 20.71875 -13.144531 20.71875 -10.09375 Z M 6.078125 -4.1875 C 7.503906 -2.769531 9.160156 -2.0625 11.046875 -2.0625 C 12.941406 -2.0625 14.59375 -2.769531 16 -4.1875 C 17.414062 -5.613281 18.125 -7.5625 18.125 -10.03125 C 18.125 -12.507812 17.40625 -14.445312 15.96875 -15.84375 C 14.53125 -17.25 12.890625 -17.953125 11.046875 -17.953125 C 9.210938 -17.953125 7.570312 -17.25 6.125 -15.84375 C 4.675781 -14.445312 3.953125 -12.507812 3.953125 -10.03125 C 3.953125 -7.5625 4.660156 -5.613281 6.078125 -4.1875 Z M 6.078125 -4.1875 "/></g></g><g style="fill:#eab464;fill-opacity:1;"><g transform="translate(117.598643, 341.921699)"><path style="stroke:none" d="M 21.15625 0 L 14.453125 0 C 14.222656 0 14.109375 -0.109375 14.109375 -0.328125 L 14.109375 -1.75 C 14.109375 -1.976562 14.222656 -2.09375 14.453125 -2.09375 L 16.59375 -2.09375 L 16.59375 -8.90625 L 6.234375 -8.90625 L 6.234375 -2.09375 L 8.375 -2.09375 C 8.625 -2.09375 8.75 -1.976562 8.75 -1.75 L 8.75 -0.328125 C 8.75 -0.109375 8.625 0 8.375 0 L 1.703125 0 C 1.460938 0 1.34375 -0.109375 1.34375 -0.328125 L 1.34375 -1.75 C 1.34375 -1.976562 1.460938 -2.09375 1.703125 -2.09375 L 3.8125 -2.09375 L 3.8125 -17.90625 L 1.703125 -17.90625 C 1.460938 -17.90625 1.34375 -18.015625 1.34375 -18.234375 L 1.34375 -19.65625 C 1.34375 -19.875 1.460938 -19.984375 1.703125 -19.984375 L 8.375 -19.984375 C 8.625 -19.984375 8.75 -19.875 8.75 -19.65625 L 8.75 -18.234375 C 8.75 -18.015625 8.625 -17.90625 8.375 -17.90625 L 6.234375 -17.90625 L 6.234375 -10.9375 L 16.59375 -10.9375 L 16.59375 -17.90625 L 14.453125 -17.90625 C 14.222656 -17.90625 14.109375 -18.015625 14.109375 -18.234375 L 14.109375 -19.65625 C 14.109375 -19.875 14.222656 -19.984375 14.453125 -19.984375 L 21.15625 -19.984375 C 21.382812 -19.984375 21.5 -19.875 21.5 -19.65625 L 21.5 -18.234375 C 21.5 -18.015625 21.382812 -17.90625 21.15625 -17.90625 L 19.015625 -17.90625 L 19.015625 -2.09375 L 21.15625 -2.09375 C 21.382812 -2.09375 21.5 -1.976562 21.5 -1.75 L 21.5 -0.328125 C 21.5 -0.109375 21.382812 0 21.15625 0 Z M 21.15625 0 "/></g></g><g style="fill:#eab464;fill-opacity:1;"><g transform="translate(140.428767, 341.921699)"><path style="stroke:none" d="M 20.71875 -10.09375 C 20.71875 -7.039062 19.800781 -4.5625 17.96875 -2.65625 C 16.144531 -0.757812 13.84375 0.1875 11.0625 0.1875 C 8.289062 0.1875 5.976562 -0.769531 4.125 -2.6875 C 2.269531 -4.601562 1.34375 -7.078125 1.34375 -10.109375 C 1.34375 -13.148438 2.296875 -15.582031 4.203125 -17.40625 C 6.117188 -19.238281 8.398438 -20.15625 11.046875 -20.15625 C 13.703125 -20.15625 15.976562 -19.238281 17.875 -17.40625 C 19.769531 -15.582031 20.71875 -13.144531 20.71875 -10.09375 Z M 6.078125 -4.1875 C 7.503906 -2.769531 9.160156 -2.0625 11.046875 -2.0625 C 12.941406 -2.0625 14.59375 -2.769531 16 -4.1875 C 17.414062 -5.613281 18.125 -7.5625 18.125 -10.03125 C 18.125 -12.507812 17.40625 -14.445312 15.96875 -15.84375 C 14.53125 -17.25 12.890625 -17.953125 11.046875 -17.953125 C 9.210938 -17.953125 7.570312 -17.25 6.125 -15.84375 C 4.675781 -14.445312 3.953125 -12.507812 3.953125 -10.03125 C 3.953125 -7.5625 4.660156 -5.613281 6.078125 -4.1875 Z M 6.078125 -4.1875 "/></g></g><g clip-rule="nonzero" clip-path="url(#89d6bf37a1)"><path style=" stroke:none;fill-rule:nonzero;fill:#fc440f;fill-opacity:1;" d="M -89.570312 189.847656 C -90.234375 189.625 -90.898438 189.390625 -91.570312 189.152344 C -97.9375 186.832031 -104.460938 184.039062 -111.433594 179.375 C -112.285156 178.816406 -113.195312 178.128906 -114.0625 177.496094 C -114.890625 176.859375 -115.5625 176.269531 -116.316406 175.644531 C -117.75 174.390625 -119.144531 173.105469 -120.457031 171.761719 C -123.101562 169.089844 -125.511719 166.253906 -127.691406 163.277344 C -132.027344 157.3125 -135.460938 150.796875 -137.820312 143.847656 C -140.171875 136.90625 -141.46875 129.507812 -141.335938 122.007812 C -141.265625 118.265625 -140.871094 114.511719 -140.066406 110.832031 C -139.664062 108.953125 -139.183594 107.296875 -138.664062 105.585938 C -138.125 103.890625 -137.511719 102.21875 -136.839844 100.570312 C -134.125 93.980469 -130.207031 88.054688 -125.882812 83.203125 C -121.554688 78.3125 -116.890625 74.394531 -112.34375 70.960938 C -103.238281 64.109375 -94.492188 58.949219 -87.28125 52.605469 C -72.710938 39.878906 -61.820312 21.4375 -58.425781 0.648438 C -58.371094 0.335938 -58.109375 0.0820312 -57.78125 0.0585938 C -57.394531 0.03125 -57.058594 0.320312 -57.035156 0.710938 C -55.460938 22.046875 -61.777344 44.628906 -75.070312 63.421875 C -81.792969 72.917969 -89.839844 80.65625 -96.027344 88.246094 C -99.132812 92.03125 -101.773438 95.75 -103.640625 99.382812 C -105.523438 103.019531 -106.605469 106.511719 -107.050781 109.96875 C -107.148438 110.839844 -107.230469 111.707031 -107.261719 112.578125 C -107.285156 113.445312 -107.304688 114.378906 -107.238281 115.101562 C -107.140625 116.648438 -106.851562 118.179688 -106.441406 119.6875 C -105.625 122.695312 -104.207031 125.632812 -102.355469 128.328125 C -100.507812 131.023438 -98.183594 133.464844 -95.640625 135.457031 C -94.363281 136.449219 -93.027344 137.332031 -91.675781 138.078125 C -91.003906 138.457031 -90.308594 138.785156 -89.636719 139.101562 C -89.308594 139.234375 -88.914062 139.414062 -88.652344 139.511719 L -87.9375 139.726562 C -85.816406 140.398438 -82.355469 141.21875 -78.59375 141.695312 C -74.808594 142.195312 -70.636719 142.449219 -66.410156 142.4375 C -65.03125 142.4375 -63.632812 142.398438 -62.246094 142.339844 C -39.988281 129.171875 -13.019531 121.886719 9.773438 121.328125 C 32.757812 120.761719 58.179688 128.679688 79.742188 141.667969 C 79.765625 141.667969 79.789062 141.675781 79.800781 141.675781 C 83.929688 142.183594 88.242188 142.429688 92.460938 142.4375 C 96.6875 142.445312 100.859375 142.195312 104.640625 141.695312 C 108.40625 141.21875 111.867188 140.398438 113.988281 139.726562 L 114.703125 139.511719 C 114.972656 139.421875 115.359375 139.234375 115.6875 139.101562 C 116.367188 138.785156 117.054688 138.457031 117.726562 138.078125 C 119.078125 137.332031 120.414062 136.449219 121.691406 135.457031 C 124.234375 133.464844 126.558594 131.023438 128.40625 128.328125 C 130.257812 125.632812 131.675781 122.695312 132.492188 119.6875 C 132.902344 118.179688 133.183594 116.648438 133.289062 115.101562 C 133.355469 114.371094 133.335938 113.445312 133.3125 112.578125 C 133.273438 111.707031 133.199219 110.839844 133.101562 109.96875 C 132.65625 106.511719 131.574219 103.019531 129.691406 99.382812 C 127.824219 95.757812 125.183594 92.03125 122.078125 88.246094 C 115.890625 80.65625 107.84375 72.917969 101.121094 63.421875 C 87.824219 44.628906 81.511719 22.046875 83.085938 0.710938 C 83.109375 0.394531 83.347656 0.121094 83.675781 0.0664062 C 84.058594 0.0078125 84.414062 0.269531 84.476562 0.648438 C 87.871094 21.4375 98.761719 39.878906 113.332031 52.605469 C 120.539062 58.949219 129.289062 64.109375 138.394531 70.960938 C 142.933594 74.402344 147.597656 78.3125 151.933594 83.203125 C 156.257812 88.0625 160.175781 93.988281 162.890625 100.570312 C 163.5625 102.21875 164.175781 103.882812 164.714844 105.585938 C 165.234375 107.289062 165.714844 108.945312 166.117188 110.832031 C 166.921875 114.503906 167.316406 118.261719 167.386719 122.007812 C 167.519531 129.507812 166.222656 136.898438 163.871094 143.847656 C 161.503906 150.796875 158.078125 157.3125 153.742188 163.277344 C 151.5625 166.253906 149.152344 169.089844 146.507812 171.761719 C 145.1875 173.105469 143.800781 174.382812 142.367188 175.644531 C 141.621094 176.261719 140.949219 176.859375 140.113281 177.496094 C 139.246094 178.121094 138.335938 178.816406 137.484375 179.375 C 130.511719 184.039062 123.988281 186.832031 117.621094 189.152344 C 116.949219 189.390625 116.285156 189.625 115.621094 189.847656 L 177.683594 189.847656 C 170.191406 206.960938 151.769531 219.070312 130.214844 219.070312 C 119.472656 219.070312 109.515625 216.0625 101.296875 210.933594 C 76.792969 274.519531 48.199219 285.84375 48.027344 346.929688 C 48.429688 353.953125 46.402344 360.191406 41.796875 363.609375 C 34.367188 369.117188 22.335938 373.039062 8.878906 373.269531 C -4.585938 373.5 -16.429688 369.941406 -23.746094 364.527344 C -28.292969 361.160156 -30.300781 354.847656 -30.03125 347.726562 C -31.898438 288.550781 -54.855469 273.898438 -80.078125 211.671875 C -88.054688 216.351562 -97.566406 219.078125 -107.777344 219.078125 C -129.332031 219.078125 -147.753906 206.96875 -155.246094 189.855469 L -89.570312 189.855469 Z M -89.570312 189.847656 "/></g><path style=" stroke:none;fill-rule:nonzero;fill:#ffffff;fill-opacity:1;" d="M 34.996094 341.570312 C 30.472656 342.113281 26.628906 343.988281 23.457031 346.605469 C 20.277344 349.21875 18.097656 352.710938 16.859375 356.308594 C 16.769531 356.578125 16.910156 356.871094 17.179688 356.96875 C 17.402344 357.042969 17.65625 356.945312 17.785156 356.757812 C 19.804688 353.707031 22.484375 351.25 25.574219 349.824219 C 28.597656 348.382812 32.085938 347.808594 34.996094 348.25 C 36.839844 348.523438 38.5625 347.257812 38.839844 345.414062 C 39.117188 343.570312 37.847656 341.84375 36.003906 341.570312 C 35.699219 341.523438 35.398438 341.515625 35.109375 341.554688 Z M 34.996094 341.570312 "/><path style=" stroke:none;fill-rule:nonzero;fill:#ffffff;fill-opacity:1;" d="M 62.722656 253 C 56.648438 256.570312 51.609375 261.515625 47.355469 267.054688 C 43.199219 272.667969 39.519531 278.707031 36.726562 285.140625 C 33.875 291.546875 31.847656 298.269531 30.503906 305.0625 L 29.605469 310.175781 L 28.980469 315.308594 C 28.628906 318.738281 28.351562 322.164062 28.253906 325.589844 C 28.25 325.945312 28.523438 326.238281 28.882812 326.253906 C 29.195312 326.261719 29.464844 326.035156 29.53125 325.738281 L 31.703125 315.773438 C 32.511719 312.480469 33.382812 309.21875 34.285156 305.988281 C 36.175781 299.539062 38.527344 293.285156 41.429688 287.320312 C 44.378906 281.378906 47.8125 275.699219 51.835938 270.40625 C 55.753906 265.03125 59.917969 259.859375 63.621094 253.925781 C 63.8125 253.621094 63.726562 253.210938 63.417969 253.015625 C 63.203125 252.875 62.933594 252.882812 62.722656 253 Z M 62.722656 253 "/><g clip-rule="nonzero" clip-path="url(#6f7353f847)"><path style=" stroke:none;fill-rule:nonzero;fill:#eab464;fill-opacity:1;" d="M -88.128906 189.734375 C -88.785156 189.515625 -89.4375 189.289062 -90.101562 189.050781 C -96.375 186.765625 -102.804688 184.015625 -109.671875 179.417969 C -110.511719 178.863281 -111.410156 178.1875 -112.261719 177.5625 C -113.078125 176.9375 -113.738281 176.355469 -114.484375 175.738281 C -115.894531 174.503906 -117.269531 173.238281 -118.566406 171.914062 C -121.167969 169.28125 -123.542969 166.484375 -125.691406 163.550781 C -129.964844 157.675781 -133.347656 151.253906 -135.675781 144.40625 C -137.992188 137.566406 -139.269531 130.277344 -139.136719 122.882812 C -139.070312 119.199219 -138.683594 115.5 -137.886719 111.871094 C -137.492188 110.019531 -137.019531 108.386719 -136.503906 106.703125 C -135.976562 105.03125 -135.371094 103.382812 -134.710938 101.757812 C -132.03125 95.265625 -128.171875 89.421875 -123.914062 84.644531 C -119.648438 79.824219 -115.050781 75.964844 -110.570312 72.578125 C -101.597656 65.828125 -92.976562 60.746094 -85.871094 54.492188 C -71.511719 41.953125 -60.78125 23.777344 -57.433594 3.292969 C -57.382812 2.984375 -57.125 2.734375 -56.800781 2.710938 C -56.417969 2.683594 -56.089844 2.96875 -56.066406 3.351562 C -54.515625 24.378906 -60.738281 46.628906 -73.835938 65.152344 C -80.464844 74.507812 -88.394531 82.132812 -94.492188 89.613281 C -97.550781 93.34375 -100.15625 97.007812 -101.992188 100.589844 C -103.847656 104.171875 -104.914062 107.613281 -105.355469 111.019531 C -105.449219 111.878906 -105.53125 112.734375 -105.5625 113.59375 C -105.582031 114.445312 -105.605469 115.367188 -105.539062 116.078125 C -105.441406 117.601562 -105.15625 119.109375 -104.75 120.597656 C -103.949219 123.558594 -102.550781 126.457031 -100.730469 129.113281 C -98.90625 131.769531 -96.617188 134.171875 -94.109375 136.136719 C -92.851562 137.117188 -91.535156 137.984375 -90.203125 138.71875 C -89.542969 139.09375 -88.855469 139.417969 -88.195312 139.726562 C -87.871094 139.859375 -87.480469 140.035156 -87.222656 140.132812 L -86.519531 140.34375 C -84.429688 141.007812 -81.015625 141.816406 -77.308594 142.285156 C -73.578125 142.78125 -69.46875 143.03125 -65.304688 143.015625 C -63.945312 143.015625 -62.570312 142.976562 -61.199219 142.917969 C -39.265625 129.945312 -12.691406 122.765625 9.769531 122.214844 C 32.417969 121.65625 57.46875 129.460938 78.71875 142.257812 C 78.742188 142.257812 78.765625 142.265625 78.777344 142.265625 C 82.847656 142.765625 87.097656 143.007812 91.253906 143.015625 C 95.417969 143.023438 99.527344 142.78125 103.257812 142.285156 C 106.964844 141.816406 110.378906 141.007812 112.464844 140.34375 L 113.171875 140.132812 C 113.4375 140.042969 113.820312 139.859375 114.144531 139.726562 C 114.8125 139.417969 115.488281 139.09375 116.152344 138.71875 C 117.484375 137.984375 118.800781 137.117188 120.058594 136.136719 C 122.566406 134.171875 124.851562 131.769531 126.675781 129.113281 C 128.5 126.457031 129.898438 123.558594 130.699219 120.597656 C 131.105469 119.109375 131.382812 117.601562 131.488281 116.078125 C 131.554688 115.359375 131.53125 114.445312 131.507812 113.59375 C 131.472656 112.734375 131.398438 111.878906 131.304688 111.019531 C 130.863281 107.613281 129.796875 104.171875 127.941406 100.589844 C 126.101562 97.015625 123.5 93.34375 120.441406 89.613281 C 114.34375 82.132812 106.414062 74.507812 99.785156 65.152344 C 86.6875 46.628906 80.464844 24.378906 82.015625 3.351562 C 82.039062 3.042969 82.273438 2.769531 82.597656 2.71875 C 82.972656 2.660156 83.324219 2.917969 83.382812 3.292969 C 86.730469 23.777344 97.460938 41.953125 111.820312 54.492188 C 118.925781 60.746094 127.546875 65.828125 136.519531 72.578125 C 140.992188 75.972656 145.585938 79.824219 149.859375 84.644531 C 154.121094 89.429688 157.980469 95.269531 160.660156 101.757812 C 161.320312 103.382812 161.925781 105.023438 162.453125 106.703125 C 162.96875 108.378906 163.4375 110.011719 163.835938 111.871094 C 164.632812 115.492188 165.019531 119.191406 165.085938 122.882812 C 165.21875 130.277344 163.941406 137.558594 161.621094 144.40625 C 159.289062 151.253906 155.914062 157.675781 151.640625 163.550781 C 149.492188 166.484375 147.117188 169.28125 144.515625 171.914062 C 143.210938 173.238281 141.84375 174.496094 140.433594 175.738281 C 139.695312 176.347656 139.035156 176.9375 138.210938 177.5625 C 137.355469 178.179688 136.460938 178.863281 135.621094 179.417969 C 128.75 184.015625 122.324219 186.765625 116.046875 189.050781 C 115.386719 189.289062 114.730469 189.515625 114.078125 189.734375 L 175.238281 189.734375 C 167.851562 206.601562 149.699219 218.53125 128.457031 218.53125 C 117.871094 218.53125 108.0625 215.566406 99.960938 210.515625 C 75.816406 273.175781 47.636719 284.332031 47.46875 344.53125 C 47.863281 351.453125 45.863281 357.601562 41.324219 360.96875 C 34.007812 366.398438 22.148438 370.257812 8.886719 370.488281 C -4.378906 370.714844 -16.054688 367.207031 -23.261719 361.875 C -27.742188 358.554688 -29.71875 352.332031 -29.457031 345.316406 C -31.292969 287.003906 -53.917969 272.566406 -78.773438 211.242188 C -86.636719 215.855469 -96.007812 218.539062 -106.070312 218.539062 C -127.3125 218.539062 -145.464844 206.609375 -152.847656 189.742188 L -88.128906 189.742188 Z M -88.128906 189.734375 "/></g><path style=" stroke:none;fill-rule:nonzero;fill:#ffffff;fill-opacity:1;" d="M 34.625 339.25 C 30.167969 339.785156 26.378906 341.632812 23.253906 344.214844 C 20.121094 346.789062 17.972656 350.230469 16.75 353.777344 C 16.664062 354.039062 16.804688 354.328125 17.066406 354.421875 C 17.289062 354.496094 17.539062 354.402344 17.664062 354.21875 C 19.65625 351.207031 22.296875 348.789062 25.34375 347.382812 C 28.320312 345.964844 31.757812 345.398438 34.625 345.832031 C 36.441406 346.105469 38.140625 344.851562 38.414062 343.035156 C 38.683594 341.21875 37.433594 339.519531 35.617188 339.25 C 35.316406 339.203125 35.023438 339.195312 34.734375 339.234375 Z M 34.625 339.25 "/><path style=" stroke:none;fill-rule:nonzero;fill:#ffffff;fill-opacity:1;" d="M 61.949219 251.96875 C 55.960938 255.484375 50.996094 260.363281 46.804688 265.820312 C 42.707031 271.351562 39.082031 277.300781 36.332031 283.640625 C 33.523438 289.953125 31.519531 296.582031 30.195312 303.273438 L 29.3125 308.3125 L 28.695312 313.371094 C 28.351562 316.75 28.078125 320.125 27.984375 323.5 C 27.976562 323.855469 28.246094 324.140625 28.601562 324.15625 C 28.910156 324.164062 29.175781 323.941406 29.242188 323.648438 L 31.382812 313.828125 C 32.175781 310.585938 33.035156 307.371094 33.925781 304.1875 C 35.785156 297.832031 38.105469 291.667969 40.964844 285.789062 C 43.871094 279.933594 47.253906 274.335938 51.21875 269.121094 C 55.082031 263.828125 59.183594 258.730469 62.832031 252.882812 C 63.023438 252.582031 62.9375 252.175781 62.632812 251.984375 C 62.421875 251.84375 62.15625 251.851562 61.949219 251.96875 Z M 61.949219 251.96875 "/><g clip-rule="nonzero" clip-path="url(#3c24a8ce42)"><g clip-rule="nonzero" clip-path="url(#aa3a2bc7ee)"><path style=" stroke:none;fill-rule:nonzero;fill:#fc440f;fill-opacity:1;" d="M 0.75 121.402344 L 4.5 121.402344 L 4.5 373.707031 L 0.75 373.707031 Z M 0.75 121.402344 "/></g></g><g clip-rule="nonzero" clip-path="url(#b6d229f7e0)"><g clip-rule="nonzero" clip-path="url(#a5affaf475)"><path style=" stroke:none;fill-rule:nonzero;fill:#fc440f;fill-opacity:1;" d="M 68.265625 337.15625 L 73.535156 337.15625 L 73.535156 342.425781 L 68.265625 342.425781 Z M 68.265625 337.15625 "/></g></g></g></svg>