<svg xmlns="http://www.w3.org/2000/svg" xmlns:xlink="http://www.w3.org/1999/xlink" width="500" zoomAndPan="magnify" viewBox="0 0 375 374.999991" height="500" preserveAspectRatio="xMidYMid meet" version="1.2"><defs><clipPath id="8f93be67e6"><path d="M 198.003906 0 L 370.503906 0 L 370.503906 373.5 L 198.003906 373.5 Z M 198.003906 0 "/></clipPath><clipPath id="6f6b770644"><path d="M 201.066406 3.300781 L 370.566406 3.300781 L 370.566406 370 L 201.066406 370 Z M 201.066406 3.300781 "/></clipPath><clipPath id="e277b80ff0"><path d="M 371.25 121.195312 L 375 121.195312 L 375 374.257812 L 371.25 374.257812 Z M 371.25 121.195312 "/></clipPath><clipPath id="51e78f1ec8"><path d="M 372 121.195312 L 374.25 121.195312 C 374.664062 121.195312 375 121.53125 375 121.945312 L 375 373.5 C 375 373.914062 374.664062 374.25 374.25 374.25 L 372 374.25 C 371.585938 374.25 371.25 373.914062 371.25 373.5 L 371.25 121.945312 C 371.25 121.53125 371.585938 121.195312 372 121.195312 Z M 372 121.195312 "/></clipPath><clipPath id="adedb6161f"><path d="M 317.925781 332.25 L 323.195312 332.25 L 323.195312 337.519531 L 317.925781 337.519531 Z M 317.925781 332.25 "/></clipPath><clipPath id="a95c09fb3e"><path d="M 320.558594 332.25 C 319.105469 332.25 317.925781 333.429688 317.925781 334.882812 C 317.925781 336.339844 319.105469 337.519531 320.558594 337.519531 C 322.015625 337.519531 323.195312 336.339844 323.195312 334.882812 C 323.195312 333.429688 322.015625 332.25 320.558594 332.25 Z M 320.558594 332.25 "/></clipPath></defs><g id="0da9f0ea3c"><g clip-rule="nonzero" clip-path="url(#8f93be67e6)"><path style=" stroke:none;fill-rule:nonzero;fill:#fc440f;fill-opacity:1;" d="M 465.449219 189.847656 C 466.113281 189.625 466.78125 189.390625 467.453125 189.152344 C 473.816406 186.832031 480.339844 184.039062 487.3125 179.375 C 488.164062 178.816406 489.074219 178.128906 489.941406 177.496094 C 490.769531 176.859375 491.441406 176.269531 492.195312 175.644531 C 493.628906 174.390625 495.023438 173.105469 496.335938 171.761719 C 498.980469 169.089844 501.390625 166.253906 503.570312 163.277344 C 507.90625 157.3125 511.339844 150.796875 513.699219 143.847656 C 516.050781 136.90625 517.347656 129.507812 517.214844 122.007812 C 517.148438 118.265625 516.75 114.511719 515.945312 110.832031 C 515.542969 108.953125 515.0625 107.296875 514.542969 105.585938 C 514.003906 103.890625 513.390625 102.21875 512.71875 100.570312 C 510.003906 93.980469 506.085938 88.054688 501.761719 83.203125 C 497.433594 78.3125 492.769531 74.394531 488.222656 70.960938 C 479.117188 64.109375 470.371094 58.949219 463.160156 52.605469 C 448.589844 39.878906 437.699219 21.4375 434.304688 0.648438 C 434.25 0.335938 433.988281 0.0820312 433.660156 0.0585938 C 433.273438 0.03125 432.9375 0.320312 432.914062 0.710938 C 431.339844 22.046875 437.65625 44.628906 450.949219 63.421875 C 457.671875 72.917969 465.71875 80.65625 471.90625 88.246094 C 475.011719 92.03125 477.65625 95.75 479.519531 99.382812 C 481.402344 103.019531 482.484375 106.511719 482.929688 109.96875 C 483.027344 110.839844 483.109375 111.707031 483.140625 112.578125 C 483.164062 113.445312 483.183594 114.378906 483.117188 115.101562 C 483.019531 116.648438 482.730469 118.179688 482.320312 119.6875 C 481.507812 122.695312 480.085938 125.632812 478.238281 128.328125 C 476.386719 131.023438 474.0625 133.464844 471.519531 135.457031 C 470.242188 136.449219 468.90625 137.332031 467.554688 138.078125 C 466.882812 138.457031 466.191406 138.785156 465.519531 139.101562 C 465.191406 139.234375 464.792969 139.414062 464.53125 139.511719 L 463.816406 139.726562 C 461.695312 140.398438 458.234375 141.21875 454.472656 141.695312 C 450.6875 142.195312 446.515625 142.449219 442.289062 142.4375 C 440.910156 142.4375 439.511719 142.398438 438.125 142.339844 C 415.867188 129.171875 388.898438 121.886719 366.105469 121.328125 C 343.121094 120.761719 317.699219 128.679688 296.136719 141.667969 C 296.113281 141.667969 296.09375 141.675781 296.078125 141.675781 C 291.949219 142.183594 287.636719 142.429688 283.417969 142.4375 C 279.195312 142.445312 275.019531 142.195312 271.238281 141.695312 C 267.476562 141.21875 264.011719 140.398438 261.890625 139.726562 L 261.175781 139.511719 C 260.90625 139.421875 260.519531 139.234375 260.191406 139.101562 C 259.511719 138.785156 258.824219 138.457031 258.152344 138.078125 C 256.800781 137.332031 255.464844 136.449219 254.1875 135.457031 C 251.644531 133.464844 249.324219 131.023438 247.472656 128.328125 C 245.621094 125.632812 244.203125 122.695312 243.386719 119.6875 C 242.976562 118.179688 242.695312 116.648438 242.589844 115.101562 C 242.523438 114.371094 242.546875 113.445312 242.566406 112.578125 C 242.605469 111.707031 242.679688 110.839844 242.777344 109.96875 C 243.222656 106.511719 244.304688 103.019531 246.1875 99.382812 C 248.054688 95.757812 250.695312 92.03125 253.800781 88.246094 C 259.988281 80.65625 268.035156 72.917969 274.761719 63.421875 C 288.054688 44.628906 294.367188 22.046875 292.792969 0.710938 C 292.769531 0.394531 292.53125 0.121094 292.203125 0.0664062 C 291.824219 0.0078125 291.464844 0.269531 291.40625 0.648438 C 288.007812 21.4375 277.117188 39.878906 262.546875 52.605469 C 255.339844 58.949219 246.589844 64.109375 237.484375 70.960938 C 232.945312 74.402344 228.28125 78.3125 223.945312 83.203125 C 219.621094 88.0625 215.703125 93.988281 212.988281 100.570312 C 212.316406 102.21875 211.703125 103.882812 211.167969 105.585938 C 210.644531 107.289062 210.167969 108.945312 209.761719 110.832031 C 208.957031 114.503906 208.5625 118.261719 208.496094 122.007812 C 208.359375 129.507812 209.660156 136.898438 212.007812 143.847656 C 214.375 150.796875 217.800781 157.3125 222.136719 163.277344 C 224.316406 166.253906 226.730469 169.089844 229.371094 171.761719 C 230.691406 173.105469 232.082031 174.382812 233.511719 175.644531 C 234.261719 176.261719 234.933594 176.859375 235.769531 177.496094 C 236.632812 178.121094 237.542969 178.816406 238.394531 179.375 C 245.367188 184.039062 251.890625 186.832031 258.257812 189.152344 C 258.929688 189.390625 259.59375 189.625 260.257812 189.847656 L 198.195312 189.847656 C 205.6875 206.960938 224.109375 219.070312 245.664062 219.070312 C 256.40625 219.070312 266.363281 216.0625 274.582031 210.933594 C 299.085938 274.519531 327.679688 285.84375 327.851562 346.929688 C 327.449219 353.953125 329.480469 360.191406 334.082031 363.609375 C 341.511719 369.117188 353.542969 373.039062 367 373.269531 C 380.464844 373.5 392.3125 369.941406 399.625 364.527344 C 404.171875 361.160156 406.179688 354.847656 405.910156 347.726562 C 407.777344 288.550781 430.734375 273.898438 455.957031 211.671875 C 463.9375 216.351562 473.445312 219.078125 483.65625 219.078125 C 505.210938 219.078125 523.632812 206.96875 531.125 189.855469 L 465.449219 189.855469 Z M 465.449219 189.847656 "/></g><path style=" stroke:none;fill-rule:nonzero;fill:#ffffff;fill-opacity:1;" d="M 340.882812 341.570312 C 345.40625 342.113281 349.25 343.988281 352.421875 346.605469 C 355.601562 349.21875 357.78125 352.710938 359.019531 356.308594 C 359.109375 356.578125 358.96875 356.871094 358.699219 356.96875 C 358.476562 357.042969 358.222656 356.945312 358.097656 356.757812 C 356.074219 353.707031 353.394531 351.25 350.304688 349.824219 C 347.28125 348.382812 343.792969 347.808594 340.882812 348.25 C 339.039062 348.523438 337.316406 347.257812 337.039062 345.414062 C 336.761719 343.570312 338.03125 341.84375 339.875 341.570312 C 340.183594 341.523438 340.480469 341.515625 340.773438 341.554688 Z M 340.882812 341.570312 "/><path style=" stroke:none;fill-rule:nonzero;fill:#ffffff;fill-opacity:1;" d="M 313.15625 253 C 319.230469 256.570312 324.269531 261.515625 328.523438 267.054688 C 332.679688 272.667969 336.359375 278.707031 339.152344 285.140625 C 342.003906 291.546875 344.035156 298.269531 345.378906 305.0625 L 346.273438 310.175781 L 346.898438 315.308594 C 347.25 318.738281 347.527344 322.164062 347.625 325.589844 C 347.632812 325.945312 347.355469 326.238281 346.996094 326.253906 C 346.683594 326.261719 346.414062 326.035156 346.347656 325.738281 L 344.175781 315.773438 C 343.371094 312.480469 342.496094 309.21875 341.59375 305.988281 C 339.703125 299.539062 337.351562 293.285156 334.449219 287.320312 C 331.5 281.378906 328.066406 275.699219 324.042969 270.40625 C 320.125 265.03125 315.960938 259.859375 312.257812 253.925781 C 312.066406 253.621094 312.15625 253.210938 312.460938 253.015625 C 312.675781 252.875 312.945312 252.882812 313.15625 253 Z M 313.15625 253 "/><g clip-rule="nonzero" clip-path="url(#6f6b770644)"><path style=" stroke:none;fill-rule:nonzero;fill:#eab464;fill-opacity:1;" d="M 463.675781 189.714844 C 464.328125 189.496094 464.980469 189.269531 465.640625 189.035156 C 471.890625 186.753906 478.296875 184.011719 485.140625 179.433594 C 485.976562 178.882812 486.871094 178.207031 487.722656 177.585938 C 488.535156 176.964844 489.195312 176.382812 489.933594 175.769531 C 491.34375 174.535156 492.710938 173.277344 494.003906 171.957031 C 496.597656 169.332031 498.964844 166.546875 501.105469 163.625 C 505.363281 157.769531 508.734375 151.371094 511.050781 144.546875 C 513.359375 137.730469 514.632812 130.46875 514.503906 123.101562 C 514.4375 119.429688 514.046875 115.742188 513.257812 112.128906 C 512.859375 110.28125 512.390625 108.65625 511.878906 106.976562 C 511.351562 105.3125 510.75 103.671875 510.089844 102.050781 C 507.421875 95.582031 503.574219 89.761719 499.332031 84.996094 C 495.078125 80.195312 490.5 76.347656 486.035156 72.976562 C 477.09375 66.25 468.503906 61.183594 461.425781 54.953125 C 447.117188 42.457031 436.425781 24.347656 433.089844 3.9375 C 433.039062 3.628906 432.78125 3.378906 432.460938 3.359375 C 432.078125 3.328125 431.75 3.613281 431.726562 3.996094 C 430.179688 24.949219 436.382812 47.121094 449.433594 65.574219 C 456.039062 74.898438 463.9375 82.496094 470.015625 89.953125 C 473.0625 93.667969 475.65625 97.316406 477.488281 100.886719 C 479.335938 104.457031 480.398438 107.886719 480.839844 111.277344 C 480.933594 112.136719 481.015625 112.988281 481.042969 113.84375 C 481.066406 114.695312 481.089844 115.609375 481.023438 116.320312 C 480.925781 117.839844 480.640625 119.339844 480.238281 120.820312 C 479.441406 123.777344 478.046875 126.664062 476.230469 129.308594 C 474.410156 131.953125 472.132812 134.351562 469.632812 136.308594 C 468.378906 137.28125 467.066406 138.148438 465.742188 138.878906 C 465.082031 139.253906 464.398438 139.578125 463.742188 139.886719 C 463.417969 140.015625 463.03125 140.191406 462.773438 140.289062 L 462.070312 140.5 C 459.988281 141.160156 456.585938 141.964844 452.894531 142.433594 C 449.175781 142.925781 445.082031 143.175781 440.933594 143.160156 C 439.578125 143.160156 438.207031 143.125 436.84375 143.066406 C 414.988281 130.136719 388.507812 122.984375 366.125 122.433594 C 343.558594 121.878906 318.59375 129.652344 297.421875 142.40625 C 297.398438 142.40625 297.375 142.414062 297.363281 142.414062 C 293.308594 142.910156 289.074219 143.152344 284.933594 143.160156 C 280.785156 143.167969 276.6875 142.925781 272.96875 142.433594 C 269.277344 141.964844 265.875 141.160156 263.792969 140.5 L 263.089844 140.289062 C 262.828125 140.199219 262.445312 140.015625 262.125 139.886719 C 261.457031 139.578125 260.78125 139.253906 260.121094 138.878906 C 258.796875 138.148438 257.484375 137.28125 256.230469 136.308594 C 253.730469 134.351562 251.453125 131.953125 249.632812 129.308594 C 247.816406 126.664062 246.425781 123.777344 245.625 120.820312 C 245.222656 119.339844 244.945312 117.839844 244.839844 116.320312 C 244.773438 115.601562 244.796875 114.695312 244.820312 113.84375 C 244.855469 112.988281 244.929688 112.136719 245.023438 111.277344 C 245.464844 107.886719 246.527344 104.457031 248.375 100.886719 C 250.207031 97.324219 252.800781 93.667969 255.851562 89.953125 C 261.925781 82.496094 269.828125 74.898438 276.429688 65.574219 C 289.484375 47.121094 295.683594 24.949219 294.136719 3.996094 C 294.113281 3.6875 293.878906 3.417969 293.558594 3.363281 C 293.183594 3.304688 292.832031 3.5625 292.773438 3.9375 C 289.4375 24.347656 278.746094 42.457031 264.4375 54.953125 C 257.359375 61.183594 248.769531 66.25 239.828125 72.976562 C 235.371094 76.355469 230.792969 80.195312 226.53125 84.996094 C 222.289062 89.769531 218.441406 95.585938 215.773438 102.050781 C 215.113281 103.671875 214.511719 105.304688 213.984375 106.976562 C 213.472656 108.648438 213.003906 110.273438 212.609375 112.128906 C 211.816406 115.734375 211.429688 119.421875 211.363281 123.101562 C 211.230469 130.46875 212.503906 137.722656 214.8125 144.546875 C 217.136719 151.371094 220.5 157.769531 224.757812 163.625 C 226.898438 166.546875 229.265625 169.332031 231.863281 171.957031 C 233.160156 173.277344 234.523438 174.53125 235.929688 175.769531 C 236.660156 176.375 237.320312 176.964844 238.140625 177.585938 C 238.992188 178.203125 239.886719 178.882812 240.722656 179.433594 C 247.566406 184.011719 253.972656 186.753906 260.226562 189.035156 C 260.886719 189.269531 261.535156 189.496094 262.1875 189.714844 L 201.246094 189.714844 C 208.605469 206.519531 226.695312 218.410156 247.859375 218.410156 C 258.40625 218.410156 268.183594 215.457031 276.253906 210.421875 C 300.316406 272.855469 328.394531 283.976562 328.5625 343.957031 C 328.167969 350.855469 330.160156 356.980469 334.683594 360.339844 C 341.972656 365.746094 353.789062 369.59375 367.003906 369.820312 C 380.226562 370.050781 391.855469 366.554688 399.039062 361.238281 C 403.503906 357.933594 405.472656 351.734375 405.210938 344.742188 C 407.042969 286.636719 429.585938 272.25 454.351562 211.144531 C 462.1875 215.742188 471.523438 218.417969 481.550781 218.417969 C 502.71875 218.417969 520.804688 206.527344 528.164062 189.722656 L 463.675781 189.722656 Z M 463.675781 189.714844 "/></g><path style=" stroke:none;fill-rule:nonzero;fill:#ffffff;fill-opacity:1;" d="M 341.359375 338.695312 C 345.800781 339.230469 349.574219 341.070312 352.691406 343.640625 C 355.8125 346.207031 357.953125 349.636719 359.167969 353.171875 C 359.257812 353.433594 359.117188 353.71875 358.851562 353.816406 C 358.632812 353.886719 358.382812 353.792969 358.257812 353.609375 C 356.273438 350.613281 353.640625 348.199219 350.609375 346.800781 C 347.640625 345.386719 344.21875 344.820312 341.359375 345.253906 C 339.546875 345.527344 337.855469 344.28125 337.585938 342.46875 C 337.3125 340.660156 338.558594 338.964844 340.371094 338.695312 C 340.667969 338.652344 340.964844 338.644531 341.25 338.679688 Z M 341.359375 338.695312 "/><path style=" stroke:none;fill-rule:nonzero;fill:#ffffff;fill-opacity:1;" d="M 314.132812 251.726562 C 320.097656 255.230469 325.042969 260.089844 329.222656 265.527344 C 333.304688 271.039062 336.917969 276.96875 339.660156 283.285156 C 342.457031 289.574219 344.453125 296.179688 345.769531 302.847656 L 346.648438 307.867188 L 347.265625 312.910156 C 347.609375 316.273438 347.882812 319.640625 347.976562 323.003906 C 347.984375 323.355469 347.714844 323.640625 347.359375 323.65625 C 347.054688 323.664062 346.789062 323.441406 346.722656 323.148438 L 344.589844 313.367188 C 343.800781 310.132812 342.941406 306.929688 342.054688 303.757812 C 340.199219 297.425781 337.890625 291.28125 335.042969 285.425781 C 332.144531 279.59375 328.773438 274.015625 324.824219 268.820312 C 320.976562 263.542969 316.886719 258.464844 313.25 252.636719 C 313.0625 252.335938 313.148438 251.933594 313.449219 251.742188 C 313.660156 251.601562 313.925781 251.609375 314.132812 251.726562 Z M 314.132812 251.726562 "/><g clip-rule="nonzero" clip-path="url(#e277b80ff0)"><g clip-rule="nonzero" clip-path="url(#51e78f1ec8)"><path style=" stroke:none;fill-rule:nonzero;fill:#fc440f;fill-opacity:1;" d="M 371.25 121.195312 L 375 121.195312 L 375 374.257812 L 371.25 374.257812 Z M 371.25 121.195312 "/></g></g><g clip-rule="nonzero" clip-path="url(#adedb6161f)"><g clip-rule="nonzero" clip-path="url(#a95c09fb3e)"><path style=" stroke:none;fill-rule:nonzero;fill:#fc440f;fill-opacity:1;" d="M 317.925781 332.25 L 323.195312 332.25 L 323.195312 337.519531 L 317.925781 337.519531 Z M 317.925781 332.25 "/></g></g></g></svg>