<svg xmlns="http://www.w3.org/2000/svg" xmlns:xlink="http://www.w3.org/1999/xlink" width="500" zoomAndPan="magnify" viewBox="0 0 375 374.999991" height="500" preserveAspectRatio="xMidYMid meet" version="1.2"><defs><clipPath id="9b85fe600e"><path d="M 5.847656 5.847656 L 369.152344 5.847656 L 369.152344 369.152344 L 5.847656 369.152344 Z M 5.847656 5.847656 "/></clipPath><clipPath id="a35df7bd4e"><path d="M 187.5 5.847656 C 87.175781 5.847656 5.847656 87.175781 5.847656 187.5 C 5.847656 287.824219 87.175781 369.152344 187.5 369.152344 C 287.824219 369.152344 369.152344 287.824219 369.152344 187.5 C 369.152344 87.175781 287.824219 5.847656 187.5 5.847656 Z M 187.5 5.847656 "/></clipPath><clipPath id="31a9d76619"><path d="M 5.847656 5.847656 L 368.847656 5.847656 L 368.847656 368.847656 L 5.847656 368.847656 Z M 5.847656 5.847656 "/></clipPath><clipPath id="9e77c45780"><path d="M 187.347656 5.847656 C 87.105469 5.847656 5.847656 87.105469 5.847656 187.347656 C 5.847656 287.585938 87.105469 368.847656 187.347656 368.847656 C 287.585938 368.847656 368.847656 287.585938 368.847656 187.347656 C 368.847656 87.105469 287.585938 5.847656 187.347656 5.847656 Z M 187.347656 5.847656 "/></clipPath><clipPath id="3bb230c20c"><path d="M 36.714844 37.453125 L 182.214844 37.453125 L 182.214844 352.453125 L 36.714844 352.453125 Z M 36.714844 37.453125 "/></clipPath><clipPath id="b7397b70c6"><path d="M 192.867188 37.453125 L 338.285156 37.453125 L 338.285156 352.453125 L 192.867188 352.453125 Z M 192.867188 37.453125 "/></clipPath></defs><g id="d3dc17d802"><g clip-rule="nonzero" clip-path="url(#9b85fe600e)"><g clip-rule="nonzero" clip-path="url(#a35df7bd4e)"><path style=" stroke:none;fill-rule:nonzero;fill:#f8f7ff;fill-opacity:1;" d="M 5.847656 5.847656 L 369.152344 5.847656 L 369.152344 369.152344 L 5.847656 369.152344 Z M 5.847656 5.847656 "/></g></g><g clip-rule="nonzero" clip-path="url(#31a9d76619)"><g clip-rule="nonzero" clip-path="url(#9e77c45780)"><path style="fill:none;stroke-width:8;stroke-linecap:butt;stroke-linejoin:miter;stroke:#fc440f;stroke-opacity:1;stroke-miterlimit:4;" d="M 242.203902 0.000782408 C 108.435454 0.000782408 0.000753664 108.435482 0.000753664 242.203931 C 0.000753664 375.967167 108.435454 484.40708 242.203902 484.40708 C 375.967138 484.40708 484.407051 375.967167 484.407051 242.203931 C 484.407051 108.435482 375.967138 0.000782408 242.203902 0.000782408 Z M 242.203902 0.000782408 " transform="matrix(0.749371,0,0,0.749371,5.847091,5.84707)"/></g></g><g clip-rule="nonzero" clip-path="url(#3bb230c20c)"><path style=" stroke:none;fill-rule:nonzero;fill:#eab464;fill-opacity:1;" d="M 262.128906 197.464844 C 262.6875 197.277344 263.246094 197.082031 263.8125 196.878906 C 269.179688 194.921875 274.679688 192.570312 280.554688 188.636719 C 281.269531 188.167969 282.039062 187.585938 282.769531 187.054688 C 283.464844 186.519531 284.03125 186.019531 284.667969 185.492188 C 285.875 184.4375 287.050781 183.355469 288.160156 182.222656 C 290.386719 179.96875 292.417969 177.578125 294.253906 175.070312 C 297.910156 170.042969 300.804688 164.550781 302.792969 158.691406 C 304.773438 152.84375 305.867188 146.609375 305.753906 140.285156 C 305.699219 137.132812 305.367188 133.96875 304.6875 130.867188 C 304.347656 129.28125 303.945312 127.886719 303.503906 126.445312 C 303.050781 125.015625 302.535156 123.609375 301.96875 122.21875 C 299.679688 116.664062 296.375 111.667969 292.734375 107.578125 C 289.085938 103.457031 285.152344 100.15625 281.320312 97.261719 C 273.644531 91.488281 266.273438 87.140625 260.195312 81.792969 C 247.917969 71.066406 238.738281 55.519531 235.875 38 C 235.832031 37.738281 235.609375 37.523438 235.335938 37.503906 C 235.007812 37.480469 234.722656 37.722656 234.707031 38.050781 C 233.378906 56.035156 238.699219 75.066406 249.902344 90.90625 C 255.574219 98.910156 262.355469 105.433594 267.570312 111.832031 C 270.1875 115.019531 272.414062 118.152344 273.984375 121.21875 C 275.570312 124.28125 276.484375 127.226562 276.859375 130.136719 C 276.941406 130.875 277.011719 131.605469 277.039062 132.339844 C 277.054688 133.070312 277.074219 133.855469 277.019531 134.464844 C 276.9375 135.769531 276.691406 137.058594 276.34375 138.328125 C 275.660156 140.863281 274.464844 143.34375 272.902344 145.613281 C 271.34375 147.886719 269.386719 149.941406 267.242188 151.621094 C 266.167969 152.457031 265.039062 153.199219 263.902344 153.832031 C 263.335938 154.152344 262.75 154.429688 262.183594 154.691406 C 261.90625 154.804688 261.574219 154.957031 261.355469 155.039062 L 260.75 155.21875 C 258.964844 155.785156 256.042969 156.480469 252.875 156.882812 C 249.683594 157.304688 246.167969 157.515625 242.605469 157.503906 C 241.441406 157.503906 240.265625 157.472656 239.097656 157.421875 C 220.335938 146.324219 197.605469 140.183594 178.394531 139.714844 C 159.023438 139.234375 137.597656 145.910156 119.421875 156.855469 C 119.402344 156.855469 119.386719 156.863281 119.371094 156.863281 C 115.894531 157.289062 112.257812 157.496094 108.703125 157.503906 C 105.140625 157.511719 101.625 157.304688 98.4375 156.882812 C 95.265625 156.480469 92.347656 155.785156 90.558594 155.21875 L 89.957031 155.039062 C 89.730469 154.960938 89.402344 154.804688 89.125 154.691406 C 88.554688 154.429688 87.972656 154.152344 87.40625 153.832031 C 86.269531 153.199219 85.144531 152.457031 84.066406 151.621094 C 81.921875 149.941406 79.964844 147.886719 78.40625 145.613281 C 76.84375 143.34375 75.648438 140.863281 74.964844 138.328125 C 74.617188 137.058594 74.378906 135.769531 74.292969 134.464844 C 74.234375 133.851562 74.253906 133.070312 74.273438 132.339844 C 74.304688 131.605469 74.367188 130.875 74.449219 130.136719 C 74.824219 127.226562 75.738281 124.28125 77.324219 121.21875 C 78.894531 118.160156 81.125 115.019531 83.742188 111.832031 C 88.957031 105.433594 95.738281 98.910156 101.40625 90.90625 C 112.609375 75.066406 117.933594 56.035156 116.605469 38.050781 C 116.585938 37.785156 116.382812 37.554688 116.109375 37.511719 C 115.785156 37.460938 115.484375 37.679688 115.433594 38 C 112.570312 55.519531 103.394531 71.066406 91.113281 81.792969 C 85.035156 87.140625 77.664062 91.488281 69.988281 97.261719 C 66.164062 100.160156 62.230469 103.457031 58.578125 107.578125 C 54.933594 111.675781 51.632812 116.667969 49.339844 122.21875 C 48.773438 123.609375 48.257812 125.011719 47.804688 126.445312 C 47.367188 127.878906 46.964844 129.277344 46.625 130.867188 C 45.945312 133.964844 45.609375 137.128906 45.554688 140.285156 C 45.441406 146.609375 46.535156 152.835938 48.515625 158.691406 C 50.511719 164.550781 53.398438 170.042969 57.054688 175.070312 C 58.890625 177.578125 60.921875 179.96875 63.148438 182.222656 C 64.261719 183.355469 65.433594 184.429688 66.640625 185.492188 C 67.269531 186.015625 67.835938 186.519531 68.542969 187.054688 C 69.269531 187.582031 70.039062 188.167969 70.757812 188.636719 C 76.632812 192.570312 82.128906 194.921875 87.496094 196.878906 C 88.0625 197.082031 88.621094 197.277344 89.183594 197.464844 L 36.871094 197.464844 C 43.1875 211.890625 58.714844 222.09375 76.882812 222.09375 C 85.9375 222.09375 94.328125 219.558594 101.253906 215.238281 C 121.90625 268.828125 146.007812 278.371094 146.152344 329.859375 C 145.8125 335.777344 147.523438 341.039062 151.40625 343.917969 C 157.664062 348.5625 167.808594 351.863281 179.148438 352.058594 C 190.5 352.253906 200.480469 349.253906 206.648438 344.691406 C 210.480469 341.855469 212.171875 336.53125 211.945312 330.53125 C 213.515625 280.65625 232.867188 268.308594 254.125 215.859375 C 260.851562 219.804688 268.867188 222.101562 277.472656 222.101562 C 295.640625 222.101562 311.164062 211.894531 317.480469 197.472656 L 262.128906 197.472656 Z M 262.128906 197.464844 "/></g><path style=" stroke:none;fill-rule:nonzero;fill:#ffffff;fill-opacity:1;" d="M 157.136719 325.339844 C 160.949219 325.800781 164.191406 327.378906 166.863281 329.585938 C 169.542969 331.789062 171.378906 334.734375 172.425781 337.765625 C 172.5 337.992188 172.378906 338.238281 172.152344 338.320312 C 171.964844 338.382812 171.75 338.300781 171.644531 338.144531 C 169.941406 335.570312 167.679688 333.5 165.078125 332.300781 C 162.527344 331.085938 159.589844 330.601562 157.136719 330.972656 C 155.582031 331.203125 154.128906 330.136719 153.898438 328.582031 C 153.664062 327.027344 154.734375 325.574219 156.289062 325.339844 C 156.546875 325.304688 156.796875 325.296875 157.042969 325.328125 Z M 157.136719 325.339844 "/><path style=" stroke:none;fill-rule:nonzero;fill:#ffffff;fill-opacity:1;" d="M 133.765625 250.691406 C 138.886719 253.699219 143.132812 257.871094 146.71875 262.539062 C 150.222656 267.269531 153.324219 272.359375 155.679688 277.78125 C 158.082031 283.179688 159.792969 288.847656 160.925781 294.570312 L 161.679688 298.882812 L 162.207031 303.210938 C 162.503906 306.097656 162.738281 308.984375 162.816406 311.871094 C 162.824219 312.175781 162.589844 312.417969 162.289062 312.433594 C 162.027344 312.4375 161.800781 312.25 161.742188 312 L 159.910156 303.601562 C 159.230469 300.824219 158.496094 298.078125 157.734375 295.351562 C 156.144531 289.917969 154.160156 284.644531 151.714844 279.617188 C 149.230469 274.609375 146.335938 269.824219 142.945312 265.363281 C 139.640625 260.832031 136.132812 256.472656 133.011719 251.472656 C 132.847656 251.214844 132.921875 250.867188 133.179688 250.707031 C 133.363281 250.585938 133.589844 250.59375 133.765625 250.691406 Z M 133.765625 250.691406 "/><g clip-rule="nonzero" clip-path="url(#b7397b70c6)"><path style=" stroke:none;fill-rule:nonzero;fill:#eab464;fill-opacity:1;" d="M 112.871094 197.464844 C 112.3125 197.277344 111.75 197.082031 111.183594 196.878906 C 105.820312 194.921875 100.320312 192.570312 94.445312 188.636719 C 93.726562 188.167969 92.960938 187.585938 92.230469 187.054688 C 91.53125 186.519531 90.964844 186.019531 90.328125 185.492188 C 89.121094 184.4375 87.945312 183.355469 86.839844 182.222656 C 84.613281 179.96875 82.578125 177.578125 80.742188 175.070312 C 77.085938 170.042969 74.195312 164.550781 72.207031 158.691406 C 70.222656 152.84375 69.128906 146.609375 69.242188 140.285156 C 69.300781 137.132812 69.632812 133.96875 70.3125 130.867188 C 70.652344 129.28125 71.054688 127.886719 71.496094 126.445312 C 71.949219 125.015625 72.464844 123.609375 73.03125 122.21875 C 75.320312 116.664062 78.621094 111.667969 82.265625 107.578125 C 85.914062 103.457031 89.84375 100.15625 93.675781 97.261719 C 101.351562 91.488281 108.726562 87.140625 114.800781 81.792969 C 127.082031 71.066406 136.261719 55.519531 139.121094 38 C 139.167969 37.738281 139.386719 37.523438 139.664062 37.503906 C 139.992188 37.480469 140.273438 37.722656 140.292969 38.050781 C 141.621094 56.035156 136.296875 75.066406 125.09375 90.90625 C 119.425781 98.910156 112.644531 105.433594 107.429688 111.832031 C 104.8125 115.019531 102.585938 118.152344 101.011719 121.21875 C 99.425781 124.28125 98.515625 127.226562 98.136719 130.136719 C 98.054688 130.875 97.984375 131.605469 97.960938 132.339844 C 97.941406 133.070312 97.921875 133.855469 97.980469 134.464844 C 98.0625 135.769531 98.308594 137.058594 98.652344 138.328125 C 99.339844 140.863281 100.535156 143.34375 102.09375 145.613281 C 103.65625 147.886719 105.609375 149.941406 107.757812 151.621094 C 108.832031 152.457031 109.957031 153.199219 111.097656 153.832031 C 111.664062 154.152344 112.246094 154.429688 112.8125 154.691406 C 113.089844 154.804688 113.425781 154.957031 113.644531 155.039062 L 114.25 155.21875 C 116.035156 155.785156 118.953125 156.480469 122.125 156.882812 C 125.3125 157.304688 128.832031 157.515625 132.390625 157.503906 C 133.554688 157.503906 134.730469 157.472656 135.902344 157.421875 C 154.660156 146.324219 177.390625 140.183594 196.605469 139.714844 C 215.972656 139.234375 237.402344 145.910156 255.574219 156.855469 C 255.59375 156.855469 255.613281 156.863281 255.625 156.863281 C 259.105469 157.289062 262.742188 157.496094 266.296875 157.503906 C 269.855469 157.511719 273.371094 157.304688 276.5625 156.882812 C 279.734375 156.480469 282.652344 155.785156 284.4375 155.21875 L 285.042969 155.039062 C 285.269531 154.960938 285.597656 154.804688 285.871094 154.691406 C 286.445312 154.429688 287.023438 154.152344 287.589844 153.832031 C 288.730469 153.199219 289.855469 152.457031 290.929688 151.621094 C 293.074219 149.941406 295.03125 147.886719 296.59375 145.613281 C 298.152344 143.34375 299.347656 140.863281 300.035156 138.328125 C 300.378906 137.058594 300.617188 135.769531 300.707031 134.464844 C 300.761719 133.851562 300.746094 133.070312 300.726562 132.339844 C 300.695312 131.605469 300.632812 130.875 300.550781 130.136719 C 300.171875 127.226562 299.261719 124.28125 297.675781 121.21875 C 296.101562 118.160156 293.875 115.019531 291.257812 111.832031 C 286.042969 105.433594 279.261719 98.910156 273.59375 90.90625 C 262.386719 75.066406 257.066406 56.035156 258.394531 38.050781 C 258.414062 37.785156 258.613281 37.554688 258.890625 37.511719 C 259.210938 37.460938 259.511719 37.679688 259.5625 38 C 262.425781 55.519531 271.605469 71.066406 283.882812 81.792969 C 289.960938 87.140625 297.335938 91.488281 305.011719 97.261719 C 308.835938 100.160156 312.765625 103.457031 316.421875 107.578125 C 320.0625 111.675781 323.367188 116.667969 325.65625 122.21875 C 326.222656 123.609375 326.738281 125.011719 327.191406 126.445312 C 327.632812 127.878906 328.035156 129.277344 328.375 130.867188 C 329.054688 133.964844 329.386719 137.128906 329.445312 140.285156 C 329.558594 146.609375 328.460938 152.835938 326.480469 158.691406 C 324.488281 164.550781 321.597656 170.042969 317.945312 175.070312 C 316.105469 177.578125 314.074219 179.96875 311.847656 182.222656 C 310.734375 183.355469 309.566406 184.429688 308.355469 185.492188 C 307.726562 186.015625 307.160156 186.519531 306.457031 187.054688 C 305.726562 187.582031 304.960938 188.167969 304.242188 188.636719 C 298.367188 192.570312 292.867188 194.921875 287.503906 196.878906 C 286.9375 197.082031 286.375 197.277344 285.816406 197.464844 L 338.125 197.464844 C 331.808594 211.890625 316.285156 222.09375 298.113281 222.09375 C 289.0625 222.09375 280.671875 219.558594 273.742188 215.238281 C 253.089844 268.828125 228.988281 278.371094 228.84375 329.859375 C 229.183594 335.777344 227.472656 341.039062 223.59375 343.917969 C 217.332031 348.5625 207.191406 351.863281 195.847656 352.058594 C 184.5 352.253906 174.515625 349.253906 168.351562 344.691406 C 164.519531 341.855469 162.828125 336.53125 163.054688 330.53125 C 161.480469 280.65625 142.128906 268.308594 120.871094 215.859375 C 114.148438 219.804688 106.132812 222.101562 97.527344 222.101562 C 79.359375 222.101562 63.832031 211.894531 57.515625 197.472656 L 112.871094 197.472656 Z M 112.871094 197.464844 "/></g><path style=" stroke:none;fill-rule:nonzero;fill:#ffffff;fill-opacity:1;" d="M 217.859375 325.339844 C 214.046875 325.800781 210.808594 327.378906 208.136719 329.585938 C 205.453125 331.789062 203.617188 334.734375 202.574219 337.765625 C 202.5 337.992188 202.617188 338.238281 202.84375 338.320312 C 203.03125 338.382812 203.246094 338.300781 203.355469 338.144531 C 205.058594 335.570312 207.316406 333.5 209.921875 332.300781 C 212.46875 331.085938 215.40625 330.601562 217.859375 330.972656 C 219.414062 331.203125 220.867188 330.136719 221.101562 328.582031 C 221.332031 327.027344 220.265625 325.574219 218.710938 325.339844 C 218.453125 325.304688 218.199219 325.296875 217.957031 325.328125 Z M 217.859375 325.339844 "/><path style=" stroke:none;fill-rule:nonzero;fill:#ffffff;fill-opacity:1;" d="M 241.230469 250.691406 C 236.109375 253.699219 231.863281 257.871094 228.277344 262.539062 C 224.773438 267.269531 221.671875 272.359375 219.320312 277.78125 C 216.917969 283.179688 215.207031 288.847656 214.074219 294.570312 L 213.320312 298.882812 L 212.789062 303.210938 C 212.496094 306.097656 212.261719 308.984375 212.179688 311.871094 C 212.171875 312.175781 212.40625 312.417969 212.707031 312.433594 C 212.972656 312.4375 213.199219 312.25 213.253906 312 L 215.085938 303.601562 C 215.765625 300.824219 216.503906 298.078125 217.261719 295.351562 C 218.855469 289.917969 220.835938 284.644531 223.285156 279.617188 C 225.769531 274.609375 228.664062 269.824219 232.054688 265.363281 C 235.355469 260.832031 238.867188 256.472656 241.988281 251.472656 C 242.148438 251.214844 242.074219 250.867188 241.816406 250.707031 C 241.632812 250.585938 241.40625 250.59375 241.230469 250.691406 Z M 241.230469 250.691406 "/><path style="fill:none;stroke-width:7;stroke-linecap:butt;stroke-linejoin:miter;stroke:#fc440f;stroke-opacity:1;stroke-miterlimit:4;" d="M -0.0024401 3.497601 L 281.440306 3.497601 " transform="matrix(0,0.748834,-0.748834,0,190.123029,141.181515)"/></g></svg>