<svg xmlns="http://www.w3.org/2000/svg" xmlns:xlink="http://www.w3.org/1999/xlink" width="500" zoomAndPan="magnify" viewBox="0 0 375 374.999991" height="500" preserveAspectRatio="xMidYMid meet" version="1.2"><defs><clipPath id="6de5978b94"><path d="M 5.25 0 L 177.75 0 L 177.75 373.5 L 5.25 373.5 Z M 5.25 0 "/></clipPath><clipPath id="c364bb5e97"><path d="M 5.25 2.625 L 175.417969 2.625 L 175.417969 370.875 L 5.25 370.875 Z M 5.25 2.625 "/></clipPath><clipPath id="b5b9b68389"><path d="M 70.515625 335.65625 L 75.785156 335.65625 L 75.785156 340.925781 L 70.515625 340.925781 Z M 70.515625 335.65625 "/></clipPath><clipPath id="44a208ae2f"><path d="M 73.148438 335.65625 C 71.695312 335.65625 70.515625 336.835938 70.515625 338.289062 C 70.515625 339.746094 71.695312 340.925781 73.148438 340.925781 C 74.605469 340.925781 75.785156 339.746094 75.785156 338.289062 C 75.785156 336.835938 74.605469 335.65625 73.148438 335.65625 Z M 73.148438 335.65625 "/></clipPath><clipPath id="c33e8a895c"><path d="M 53.054688 306.691406 L 165.585938 306.691406 L 165.585938 352.203125 L 53.054688 352.203125 Z M 53.054688 306.691406 "/></clipPath><clipPath id="1d717d121a"><path d="M 70.304688 306.691406 L 148.304688 306.691406 C 152.882812 306.691406 157.269531 308.507812 160.503906 311.746094 C 163.738281 314.980469 165.554688 319.367188 165.554688 323.941406 L 165.554688 334.953125 C 165.554688 339.527344 163.738281 343.914062 160.503906 347.148438 C 157.269531 350.382812 152.882812 352.203125 148.304688 352.203125 L 70.304688 352.203125 C 65.730469 352.203125 61.34375 350.382812 58.109375 347.148438 C 54.875 343.914062 53.054688 339.527344 53.054688 334.953125 L 53.054688 323.941406 C 53.054688 319.367188 54.875 314.980469 58.109375 311.746094 C 61.34375 308.507812 65.730469 306.691406 70.304688 306.691406 Z M 70.304688 306.691406 "/></clipPath><clipPath id="e793664d38"><path d="M 53.054688 333.023438 L 58.324219 333.023438 L 58.324219 338.289062 L 53.054688 338.289062 Z M 53.054688 333.023438 "/></clipPath><clipPath id="c228333157"><path d="M 55.691406 333.023438 C 54.234375 333.023438 53.054688 334.203125 53.054688 335.65625 C 53.054688 337.109375 54.234375 338.289062 55.691406 338.289062 C 57.144531 338.289062 58.324219 337.109375 58.324219 335.65625 C 58.324219 334.203125 57.144531 333.023438 55.691406 333.023438 Z M 55.691406 333.023438 "/></clipPath><clipPath id="1697c93cdd"><path d="M 0.734375 121.410156 L 4.5 121.410156 L 4.5 373.730469 L 0.734375 373.730469 Z M 0.734375 121.410156 "/></clipPath><clipPath id="a4617e36fb"><path d="M 1.5 121.425781 L 3.75 121.425781 C 4.164062 121.425781 4.5 121.761719 4.5 122.175781 L 4.5 372.976562 C 4.5 373.390625 4.164062 373.726562 3.75 373.726562 L 1.5 373.726562 C 1.085938 373.726562 0.75 373.390625 0.75 372.976562 L 0.75 122.175781 C 0.75 121.761719 1.085938 121.425781 1.5 121.425781 Z M 1.5 121.425781 "/></clipPath><clipPath id="5db8cc5d6b"><path d="M 0.75 121.425781 L 4.5 121.425781 L 4.5 373.425781 L 0.75 373.425781 Z M 0.75 121.425781 "/></clipPath><clipPath id="ee390530ea"><path d="M 1.5 121.425781 L 3.746094 121.425781 C 4.160156 121.425781 4.496094 121.761719 4.496094 122.175781 L 4.496094 372.675781 C 4.496094 373.089844 4.160156 373.425781 3.746094 373.425781 L 1.5 373.425781 C 1.085938 373.425781 0.75 373.089844 0.75 372.675781 L 0.75 122.175781 C 0.75 121.761719 1.085938 121.425781 1.5 121.425781 Z M 1.5 121.425781 "/></clipPath></defs><g id="895d4f5df0"><g style="fill:#b69262;fill-opacity:1;"><g transform="translate(53.056602, 340.421699)"><path style="stroke:none" d="M 9.390625 0 L 1.703125 0 C 1.460938 0 1.34375 -0.109375 1.34375 -0.328125 L 1.34375 -1.75 C 1.34375 -1.976562 1.460938 -2.09375 1.703125 -2.09375 L 3.8125 -2.09375 L 3.8125 -17.90625 L 1.703125 -17.90625 C 1.460938 -17.90625 1.34375 -18.015625 1.34375 -18.234375 L 1.34375 -19.65625 C 1.34375 -19.875 1.460938 -19.984375 1.703125 -19.984375 L 15.984375 -19.984375 C 16.222656 -19.984375 16.34375 -19.875 16.34375 -19.65625 L 16.34375 -15.171875 C 16.34375 -14.929688 16.222656 -14.8125 15.984375 -14.8125 L 14.484375 -14.8125 C 14.253906 -14.8125 14.140625 -14.929688 14.140625 -15.171875 L 14.140625 -17.90625 L 6.234375 -17.90625 L 6.234375 -11 L 12.78125 -11 C 13.019531 -11 13.140625 -10.890625 13.140625 -10.671875 L 13.140625 -9.25 C 13.140625 -9.019531 13.019531 -8.90625 12.78125 -8.90625 L 6.234375 -8.90625 L 6.234375 -2.09375 L 9.390625 -2.09375 C 9.609375 -2.09375 9.71875 -1.976562 9.71875 -1.75 L 9.71875 -0.328125 C 9.71875 -0.109375 9.609375 0 9.390625 0 Z M 9.390625 0 "/></g></g><g style="fill:#b69262;fill-opacity:1;"><g transform="translate(70.736032, 340.421699)"><path style="stroke:none" d=""/></g></g><g style="fill:#b69262;fill-opacity:1;"><g transform="translate(79.450459, 340.421699)"><path style="stroke:none" d="M 8.96875 0 L 1.703125 0 C 1.460938 0 1.34375 -0.109375 1.34375 -0.328125 L 1.34375 -1.75 C 1.34375 -1.976562 1.460938 -2.09375 1.703125 -2.09375 L 3.8125 -2.09375 L 3.8125 -17.90625 L 1.703125 -17.90625 C 1.460938 -17.90625 1.34375 -18.015625 1.34375 -18.234375 L 1.34375 -19.65625 C 1.34375 -19.875 1.460938 -19.984375 1.703125 -19.984375 L 10.28125 -19.984375 C 12.238281 -19.984375 13.84375 -19.410156 15.09375 -18.265625 C 16.351562 -17.128906 16.984375 -15.59375 16.984375 -13.65625 C 16.984375 -11.71875 16.367188 -10.210938 15.140625 -9.140625 C 13.921875 -8.078125 12.195312 -7.546875 9.96875 -7.546875 L 6.234375 -7.546875 L 6.234375 -2.09375 L 8.96875 -2.09375 C 9.1875 -2.09375 9.296875 -1.976562 9.296875 -1.75 L 9.296875 -0.328125 C 9.296875 -0.109375 9.1875 0 8.96875 0 Z M 6.234375 -9.515625 L 9.859375 -9.515625 C 12.972656 -9.515625 14.53125 -10.890625 14.53125 -13.640625 C 14.53125 -15.066406 14.085938 -16.132812 13.203125 -16.84375 C 12.328125 -17.550781 11.222656 -17.90625 9.890625 -17.90625 L 6.234375 -17.90625 Z M 6.234375 -9.515625 "/></g></g><g style="fill:#b69262;fill-opacity:1;"><g transform="translate(97.770242, 340.421699)"><path style="stroke:none" d="M 20.71875 -10.09375 C 20.71875 -7.039062 19.800781 -4.5625 17.96875 -2.65625 C 16.144531 -0.757812 13.84375 0.1875 11.0625 0.1875 C 8.289062 0.1875 5.976562 -0.769531 4.125 -2.6875 C 2.269531 -4.601562 1.34375 -7.078125 1.34375 -10.109375 C 1.34375 -13.148438 2.296875 -15.582031 4.203125 -17.40625 C 6.117188 -19.238281 8.398438 -20.15625 11.046875 -20.15625 C 13.703125 -20.15625 15.976562 -19.238281 17.875 -17.40625 C 19.769531 -15.582031 20.71875 -13.144531 20.71875 -10.09375 Z M 6.078125 -4.1875 C 7.503906 -2.769531 9.160156 -2.0625 11.046875 -2.0625 C 12.941406 -2.0625 14.59375 -2.769531 16 -4.1875 C 17.414062 -5.613281 18.125 -7.5625 18.125 -10.03125 C 18.125 -12.507812 17.40625 -14.445312 15.96875 -15.84375 C 14.53125 -17.25 12.890625 -17.953125 11.046875 -17.953125 C 9.210938 -17.953125 7.570312 -17.25 6.125 -15.84375 C 4.675781 -14.445312 3.953125 -12.507812 3.953125 -10.03125 C 3.953125 -7.5625 4.660156 -5.613281 6.078125 -4.1875 Z M 6.078125 -4.1875 "/></g></g><g style="fill:#b69262;fill-opacity:1;"><g transform="translate(119.848642, 340.421699)"><path style="stroke:none" d="M 21.15625 0 L 14.453125 0 C 14.222656 0 14.109375 -0.109375 14.109375 -0.328125 L 14.109375 -1.75 C 14.109375 -1.976562 14.222656 -2.09375 14.453125 -2.09375 L 16.59375 -2.09375 L 16.59375 -8.90625 L 6.234375 -8.90625 L 6.234375 -2.09375 L 8.375 -2.09375 C 8.625 -2.09375 8.75 -1.976562 8.75 -1.75 L 8.75 -0.328125 C 8.75 -0.109375 8.625 0 8.375 0 L 1.703125 0 C 1.460938 0 1.34375 -0.109375 1.34375 -0.328125 L 1.34375 -1.75 C 1.34375 -1.976562 1.460938 -2.09375 1.703125 -2.09375 L 3.8125 -2.09375 L 3.8125 -17.90625 L 1.703125 -17.90625 C 1.460938 -17.90625 1.34375 -18.015625 1.34375 -18.234375 L 1.34375 -19.65625 C 1.34375 -19.875 1.460938 -19.984375 1.703125 -19.984375 L 8.375 -19.984375 C 8.625 -19.984375 8.75 -19.875 8.75 -19.65625 L 8.75 -18.234375 C 8.75 -18.015625 8.625 -17.90625 8.375 -17.90625 L 6.234375 -17.90625 L 6.234375 -10.9375 L 16.59375 -10.9375 L 16.59375 -17.90625 L 14.453125 -17.90625 C 14.222656 -17.90625 14.109375 -18.015625 14.109375 -18.234375 L 14.109375 -19.65625 C 14.109375 -19.875 14.222656 -19.984375 14.453125 -19.984375 L 21.15625 -19.984375 C 21.382812 -19.984375 21.5 -19.875 21.5 -19.65625 L 21.5 -18.234375 C 21.5 -18.015625 21.382812 -17.90625 21.15625 -17.90625 L 19.015625 -17.90625 L 19.015625 -2.09375 L 21.15625 -2.09375 C 21.382812 -2.09375 21.5 -1.976562 21.5 -1.75 L 21.5 -0.328125 C 21.5 -0.109375 21.382812 0 21.15625 0 Z M 21.15625 0 "/></g></g><g style="fill:#b69262;fill-opacity:1;"><g transform="translate(142.678767, 340.421699)"><path style="stroke:none" d="M 20.71875 -10.09375 C 20.71875 -7.039062 19.800781 -4.5625 17.96875 -2.65625 C 16.144531 -0.757812 13.84375 0.1875 11.0625 0.1875 C 8.289062 0.1875 5.976562 -0.769531 4.125 -2.6875 C 2.269531 -4.601562 1.34375 -7.078125 1.34375 -10.109375 C 1.34375 -13.148438 2.296875 -15.582031 4.203125 -17.40625 C 6.117188 -19.238281 8.398438 -20.15625 11.046875 -20.15625 C 13.703125 -20.15625 15.976562 -19.238281 17.875 -17.40625 C 19.769531 -15.582031 20.71875 -13.144531 20.71875 -10.09375 Z M 6.078125 -4.1875 C 7.503906 -2.769531 9.160156 -2.0625 11.046875 -2.0625 C 12.941406 -2.0625 14.59375 -2.769531 16 -4.1875 C 17.414062 -5.613281 18.125 -7.5625 18.125 -10.03125 C 18.125 -12.507812 17.40625 -14.445312 15.96875 -15.84375 C 14.53125 -17.25 12.890625 -17.953125 11.046875 -17.953125 C 9.210938 -17.953125 7.570312 -17.25 6.125 -15.84375 C 4.675781 -14.445312 3.953125 -12.507812 3.953125 -10.03125 C 3.953125 -7.5625 4.660156 -5.613281 6.078125 -4.1875 Z M 6.078125 -4.1875 "/></g></g><g clip-rule="nonzero" clip-path="url(#6de5978b94)"><path style=" stroke:none;fill-rule:nonzero;fill:#fc440f;fill-opacity:1;" d="M -89.578125 189.847656 C -90.242188 189.625 -90.90625 189.390625 -91.578125 189.152344 C -97.945312 186.832031 -104.46875 184.039062 -111.441406 179.375 C -112.292969 178.816406 -113.203125 178.128906 -114.070312 177.496094 C -114.898438 176.859375 -115.570312 176.269531 -116.324219 175.644531 C -117.757812 174.390625 -119.152344 173.105469 -120.464844 171.761719 C -123.109375 169.089844 -125.519531 166.253906 -127.699219 163.277344 C -132.035156 157.3125 -135.46875 150.796875 -137.828125 143.847656 C -140.179688 136.90625 -141.476562 129.507812 -141.34375 122.007812 C -141.273438 118.265625 -140.878906 114.511719 -140.074219 110.832031 C -139.671875 108.953125 -139.191406 107.296875 -138.671875 105.585938 C -138.132812 103.890625 -137.519531 102.21875 -136.847656 100.570312 C -134.132812 93.980469 -130.214844 88.054688 -125.890625 83.203125 C -121.5625 78.3125 -116.898438 74.394531 -112.351562 70.960938 C -103.246094 64.109375 -94.5 58.949219 -87.289062 52.605469 C -72.71875 39.878906 -61.828125 21.4375 -58.433594 0.648438 C -58.378906 0.335938 -58.117188 0.0820312 -57.789062 0.0585938 C -57.402344 0.03125 -57.066406 0.320312 -57.042969 0.710938 C -55.46875 22.046875 -61.785156 44.628906 -75.078125 63.421875 C -81.800781 72.917969 -89.847656 80.65625 -96.035156 88.246094 C -99.140625 92.03125 -101.78125 95.75 -103.648438 99.382812 C -105.53125 103.019531 -106.613281 106.511719 -107.058594 109.96875 C -107.15625 110.839844 -107.238281 111.707031 -107.269531 112.578125 C -107.292969 113.445312 -107.3125 114.378906 -107.246094 115.101562 C -107.148438 116.648438 -106.859375 118.179688 -106.449219 119.6875 C -105.632812 122.695312 -104.214844 125.632812 -102.367188 128.328125 C -100.515625 131.023438 -98.191406 133.464844 -95.648438 135.457031 C -94.371094 136.449219 -93.035156 137.332031 -91.683594 138.078125 C -91.011719 138.457031 -90.316406 138.785156 -89.648438 139.101562 C -89.316406 139.234375 -88.921875 139.414062 -88.660156 139.511719 L -87.945312 139.726562 C -85.824219 140.398438 -82.363281 141.21875 -78.601562 141.695312 C -74.816406 142.195312 -70.644531 142.449219 -66.417969 142.4375 C -65.039062 142.4375 -63.640625 142.398438 -62.253906 142.339844 C -39.996094 129.171875 -13.027344 121.886719 9.765625 121.328125 C 32.75 120.761719 58.171875 128.679688 79.734375 141.667969 C 79.757812 141.667969 79.78125 141.675781 79.792969 141.675781 C 83.921875 142.183594 88.234375 142.429688 92.453125 142.4375 C 96.679688 142.445312 100.851562 142.195312 104.632812 141.695312 C 108.394531 141.21875 111.859375 140.398438 113.980469 139.726562 L 114.695312 139.511719 C 114.964844 139.421875 115.351562 139.234375 115.679688 139.101562 C 116.359375 138.785156 117.046875 138.457031 117.71875 138.078125 C 119.070312 137.332031 120.40625 136.449219 121.683594 135.457031 C 124.226562 133.464844 126.550781 131.023438 128.398438 128.328125 C 130.25 125.632812 131.667969 122.695312 132.484375 119.6875 C 132.894531 118.179688 133.175781 116.648438 133.28125 115.101562 C 133.347656 114.371094 133.328125 113.445312 133.304688 112.578125 C 133.265625 111.707031 133.191406 110.839844 133.09375 109.96875 C 132.648438 106.511719 131.566406 103.019531 129.683594 99.382812 C 127.816406 95.757812 125.175781 92.03125 122.070312 88.246094 C 115.882812 80.65625 107.835938 72.917969 101.113281 63.421875 C 87.816406 44.628906 81.503906 22.046875 83.078125 0.710938 C 83.101562 0.394531 83.339844 0.121094 83.667969 0.0664062 C 84.050781 0.0078125 84.40625 0.269531 84.46875 0.648438 C 87.863281 21.4375 98.753906 39.878906 113.324219 52.605469 C 120.53125 58.949219 129.28125 64.109375 138.386719 70.960938 C 142.925781 74.402344 147.589844 78.3125 151.925781 83.203125 C 156.25 88.0625 160.167969 93.988281 162.882812 100.570312 C 163.554688 102.21875 164.167969 103.882812 164.707031 105.585938 C 165.226562 107.289062 165.707031 108.945312 166.109375 110.832031 C 166.914062 114.503906 167.308594 118.261719 167.378906 122.007812 C 167.511719 129.507812 166.210938 136.898438 163.863281 143.847656 C 161.496094 150.796875 158.070312 157.3125 153.734375 163.277344 C 151.554688 166.253906 149.144531 169.089844 146.5 171.761719 C 145.179688 173.105469 143.789062 174.382812 142.359375 175.644531 C 141.613281 176.261719 140.941406 176.859375 140.105469 177.496094 C 139.238281 178.121094 138.328125 178.816406 137.476562 179.375 C 130.503906 184.039062 123.980469 186.832031 117.613281 189.152344 C 116.941406 189.390625 116.277344 189.625 115.613281 189.847656 L 177.675781 189.847656 C 170.183594 206.960938 151.761719 219.070312 130.207031 219.070312 C 119.464844 219.070312 109.507812 216.0625 101.289062 210.933594 C 76.785156 274.519531 48.191406 285.84375 48.019531 346.929688 C 48.421875 353.953125 46.394531 360.191406 41.789062 363.609375 C 34.359375 369.117188 22.328125 373.039062 8.871094 373.269531 C -4.59375 373.5 -16.4375 369.941406 -23.753906 364.527344 C -28.300781 361.160156 -30.308594 354.847656 -30.039062 347.726562 C -31.90625 288.550781 -54.863281 273.898438 -80.085938 211.671875 C -88.0625 216.351562 -97.574219 219.078125 -107.785156 219.078125 C -129.339844 219.078125 -147.761719 206.96875 -155.253906 189.855469 L -89.578125 189.855469 Z M -89.578125 189.847656 "/></g><path style=" stroke:none;fill-rule:nonzero;fill:#ffffff;fill-opacity:1;" d="M 34.988281 341.570312 C 30.464844 342.113281 26.621094 343.988281 23.449219 346.605469 C 20.269531 349.21875 18.089844 352.710938 16.851562 356.308594 C 16.761719 356.578125 16.902344 356.871094 17.171875 356.96875 C 17.394531 357.042969 17.648438 356.945312 17.777344 356.757812 C 19.796875 353.707031 22.476562 351.25 25.566406 349.824219 C 28.589844 348.382812 32.078125 347.808594 34.988281 348.25 C 36.832031 348.523438 38.554688 347.257812 38.832031 345.414062 C 39.109375 343.570312 37.839844 341.84375 35.996094 341.570312 C 35.6875 341.523438 35.390625 341.515625 35.101562 341.554688 Z M 34.988281 341.570312 "/><path style=" stroke:none;fill-rule:nonzero;fill:#ffffff;fill-opacity:1;" d="M 62.714844 253 C 56.640625 256.570312 51.601562 261.515625 47.347656 267.054688 C 43.191406 272.667969 39.511719 278.707031 36.71875 285.140625 C 33.867188 291.546875 31.839844 298.269531 30.496094 305.0625 L 29.597656 310.175781 L 28.972656 315.308594 C 28.621094 318.738281 28.34375 322.164062 28.246094 325.589844 C 28.242188 325.945312 28.515625 326.238281 28.875 326.253906 C 29.1875 326.261719 29.457031 326.035156 29.523438 325.738281 L 31.695312 315.773438 C 32.503906 312.480469 33.375 309.21875 34.277344 305.988281 C 36.167969 299.539062 38.519531 293.285156 41.421875 287.320312 C 44.371094 281.378906 47.804688 275.699219 51.828125 270.40625 C 55.746094 265.03125 59.910156 259.859375 63.613281 253.925781 C 63.804688 253.621094 63.714844 253.210938 63.410156 253.015625 C 63.195312 252.875 62.925781 252.882812 62.714844 253 Z M 62.714844 253 "/><g clip-rule="nonzero" clip-path="url(#c364bb5e97)"><path style=" stroke:none;fill-rule:nonzero;fill:#eab464;fill-opacity:1;" d="M -88.136719 189.707031 C -88.792969 189.488281 -89.445312 189.261719 -90.109375 189.023438 C -96.382812 186.738281 -102.8125 183.984375 -109.679688 179.390625 C -110.519531 178.835938 -111.417969 178.160156 -112.269531 177.535156 C -113.085938 176.910156 -113.75 176.328125 -114.492188 175.710938 C -115.902344 174.476562 -117.277344 173.210938 -118.574219 171.886719 C -121.175781 169.253906 -123.554688 166.457031 -125.699219 163.523438 C -129.972656 157.648438 -133.359375 151.226562 -135.683594 144.378906 C -138 137.535156 -139.277344 130.246094 -139.144531 122.855469 C -139.078125 119.171875 -138.691406 115.472656 -137.894531 111.84375 C -137.5 109.992188 -137.027344 108.359375 -136.511719 106.675781 C -135.984375 105.003906 -135.378906 103.355469 -134.71875 101.730469 C -132.039062 95.238281 -128.179688 89.394531 -123.921875 84.617188 C -119.65625 79.796875 -115.058594 75.9375 -110.578125 72.550781 C -101.605469 65.800781 -92.984375 60.71875 -85.878906 54.464844 C -71.519531 41.925781 -60.789062 23.75 -57.441406 3.265625 C -57.390625 2.957031 -57.132812 2.707031 -56.808594 2.683594 C -56.429688 2.65625 -56.097656 2.941406 -56.074219 3.324219 C -54.523438 24.351562 -60.746094 46.601562 -73.84375 65.125 C -80.472656 74.480469 -88.402344 82.105469 -94.5 89.585938 C -97.558594 93.316406 -100.164062 96.980469 -102 100.5625 C -103.855469 104.144531 -104.921875 107.585938 -105.363281 110.992188 C -105.457031 111.851562 -105.539062 112.707031 -105.570312 113.566406 C -105.589844 114.417969 -105.613281 115.339844 -105.546875 116.050781 C -105.453125 117.574219 -105.164062 119.082031 -104.761719 120.566406 C -103.957031 123.53125 -102.5625 126.429688 -100.738281 129.085938 C -98.914062 131.742188 -96.625 134.144531 -94.117188 136.109375 C -92.859375 137.089844 -91.542969 137.957031 -90.210938 138.691406 C -89.550781 139.066406 -88.863281 139.390625 -88.203125 139.699219 C -87.878906 139.832031 -87.488281 140.007812 -87.230469 140.105469 L -86.527344 140.316406 C -84.4375 140.980469 -81.023438 141.789062 -77.316406 142.257812 C -73.585938 142.753906 -69.476562 143.003906 -65.3125 142.988281 C -63.953125 142.988281 -62.578125 142.949219 -61.207031 142.890625 C -39.273438 129.917969 -12.699219 122.738281 9.761719 122.1875 C 32.410156 121.628906 57.460938 129.429688 78.710938 142.230469 C 78.734375 142.230469 78.757812 142.238281 78.769531 142.238281 C 82.839844 142.738281 87.089844 142.980469 91.246094 142.988281 C 95.410156 142.996094 99.519531 142.753906 103.25 142.257812 C 106.957031 141.789062 110.371094 140.980469 112.457031 140.316406 L 113.164062 140.105469 C 113.429688 140.015625 113.8125 139.832031 114.136719 139.699219 C 114.804688 139.390625 115.480469 139.066406 116.144531 138.691406 C 117.476562 137.957031 118.792969 137.089844 120.050781 136.109375 C 122.558594 134.144531 124.84375 131.742188 126.667969 129.085938 C 128.492188 126.429688 129.890625 123.53125 130.691406 120.566406 C 131.097656 119.082031 131.375 117.574219 131.480469 116.050781 C 131.546875 115.332031 131.523438 114.417969 131.5 113.566406 C 131.464844 112.707031 131.390625 111.851562 131.296875 110.992188 C 130.855469 107.585938 129.789062 104.144531 127.933594 100.5625 C 126.09375 96.988281 123.492188 93.316406 120.433594 89.585938 C 114.335938 82.105469 106.40625 74.480469 99.777344 65.125 C 86.679688 46.601562 80.457031 24.351562 82.007812 3.324219 C 82.03125 3.015625 82.265625 2.742188 82.589844 2.691406 C 82.964844 2.632812 83.316406 2.890625 83.375 3.265625 C 86.722656 23.75 97.453125 41.925781 111.8125 54.464844 C 118.917969 60.71875 127.539062 65.800781 136.511719 72.550781 C 140.984375 75.941406 145.578125 79.796875 149.851562 84.617188 C 154.113281 89.402344 157.972656 95.242188 160.652344 101.730469 C 161.3125 103.355469 161.917969 104.996094 162.445312 106.675781 C 162.960938 108.351562 163.429688 109.984375 163.828125 111.84375 C 164.621094 115.464844 165.011719 119.164062 165.078125 122.855469 C 165.210938 130.246094 163.929688 137.53125 161.613281 144.378906 C 159.28125 151.226562 155.90625 157.648438 151.632812 163.523438 C 149.484375 166.457031 147.109375 169.253906 144.507812 171.886719 C 143.203125 173.210938 141.835938 174.46875 140.421875 175.710938 C 139.6875 176.320312 139.027344 176.910156 138.203125 177.535156 C 137.347656 178.152344 136.453125 178.835938 135.613281 179.390625 C 128.742188 183.984375 122.316406 186.738281 116.039062 189.023438 C 115.378906 189.261719 114.722656 189.488281 114.070312 189.707031 L 175.230469 189.707031 C 167.84375 206.574219 149.691406 218.503906 128.449219 218.503906 C 117.863281 218.503906 108.054688 215.539062 99.953125 210.488281 C 75.808594 273.148438 47.628906 284.304688 47.460938 344.503906 C 47.855469 351.421875 45.855469 357.574219 41.316406 360.941406 C 34 366.371094 22.140625 370.230469 8.878906 370.460938 C -4.386719 370.6875 -16.0625 367.179688 -23.269531 361.847656 C -27.75 358.527344 -29.726562 352.304688 -29.464844 345.289062 C -31.300781 286.976562 -53.925781 272.539062 -78.78125 211.214844 C -86.644531 215.828125 -96.015625 218.511719 -106.078125 218.511719 C -127.320312 218.511719 -145.472656 206.582031 -152.855469 189.714844 L -88.136719 189.714844 Z M -88.136719 189.707031 "/></g><path style=" stroke:none;fill-rule:nonzero;fill:#ffffff;fill-opacity:1;" d="M 34.617188 339.222656 C 30.160156 339.757812 26.371094 341.605469 23.246094 344.1875 C 20.113281 346.761719 17.964844 350.203125 16.742188 353.746094 C 16.65625 354.011719 16.792969 354.300781 17.058594 354.394531 C 17.28125 354.46875 17.53125 354.375 17.65625 354.1875 C 19.648438 351.179688 22.289062 348.761719 25.335938 347.355469 C 28.3125 345.9375 31.75 345.371094 34.617188 345.804688 C 36.433594 346.078125 38.132812 344.824219 38.40625 343.007812 C 38.675781 341.191406 37.425781 339.492188 35.609375 339.222656 C 35.308594 339.175781 35.015625 339.167969 34.726562 339.207031 Z M 34.617188 339.222656 "/><path style=" stroke:none;fill-rule:nonzero;fill:#ffffff;fill-opacity:1;" d="M 61.941406 251.941406 C 55.953125 255.457031 50.988281 260.335938 46.796875 265.792969 C 42.699219 271.324219 39.074219 277.273438 36.324219 283.613281 C 33.511719 289.925781 31.511719 296.550781 30.1875 303.246094 L 29.304688 308.285156 L 28.6875 313.34375 C 28.34375 316.722656 28.070312 320.097656 27.976562 323.472656 C 27.96875 323.828125 28.238281 324.113281 28.59375 324.128906 C 28.902344 324.136719 29.167969 323.914062 29.234375 323.621094 L 31.375 313.800781 C 32.167969 310.558594 33.027344 307.34375 33.917969 304.15625 C 35.777344 297.804688 38.097656 291.640625 40.957031 285.761719 C 43.863281 279.90625 47.246094 274.308594 51.210938 269.09375 C 55.070312 263.800781 59.175781 258.703125 62.824219 252.855469 C 63.015625 252.554688 62.925781 252.148438 62.625 251.957031 C 62.414062 251.816406 62.148438 251.824219 61.941406 251.941406 Z M 61.941406 251.941406 "/><g clip-rule="nonzero" clip-path="url(#b5b9b68389)"><g clip-rule="nonzero" clip-path="url(#44a208ae2f)"><path style=" stroke:none;fill-rule:nonzero;fill:#4056a1;fill-opacity:1;" d="M 70.515625 335.65625 L 75.785156 335.65625 L 75.785156 340.925781 L 70.515625 340.925781 Z M 70.515625 335.65625 "/></g></g><g clip-rule="nonzero" clip-path="url(#c33e8a895c)"><g clip-rule="nonzero" clip-path="url(#1d717d121a)"><path style=" stroke:none;fill-rule:nonzero;fill:#ffffff;fill-opacity:1;" d="M 53.054688 306.691406 L 165.585938 306.691406 L 165.585938 352.203125 L 53.054688 352.203125 Z M 53.054688 306.691406 "/></g></g><g clip-rule="nonzero" clip-path="url(#e793664d38)"><g clip-rule="nonzero" clip-path="url(#c228333157)"><path style=" stroke:none;fill-rule:nonzero;fill:#fc440f;fill-opacity:1;" d="M 53.054688 333.023438 L 58.324219 333.023438 L 58.324219 338.289062 L 53.054688 338.289062 Z M 53.054688 333.023438 "/></g></g><g clip-rule="nonzero" clip-path="url(#1697c93cdd)"><g clip-rule="nonzero" clip-path="url(#a4617e36fb)"><path style=" stroke:none;fill-rule:nonzero;fill:#fc440f;fill-opacity:1;" d="M 0.75 121.425781 L 4.5 121.425781 L 4.5 373.730469 L 0.75 373.730469 Z M 0.75 121.425781 "/></g></g><g clip-rule="nonzero" clip-path="url(#5db8cc5d6b)"><g clip-rule="nonzero" clip-path="url(#ee390530ea)"><path style="fill:none;stroke-width:8;stroke-linecap:butt;stroke-linejoin:miter;stroke:#fc440f;stroke-opacity:1;stroke-miterlimit:4;" d="M 1.001087 0.00105352 L 3.99936 0.00105352 C 4.552086 0.00105352 5.000523 0.449491 5.000523 1.002216 L 5.000523 335.390524 C 5.000523 335.94325 4.552086 336.391687 3.99936 336.391687 L 1.001087 336.391687 C 0.448362 336.391687 -0.0000756862 335.94325 -0.0000756862 335.390524 L -0.0000756862 1.002216 C -0.0000756862 0.449491 0.448362 0.00105352 1.001087 0.00105352 Z M 1.001087 0.00105352 " transform="matrix(0.749129,0,0,0.749129,0.750057,121.424992)"/></g></g></g></svg>