<svg xmlns="http://www.w3.org/2000/svg" xmlns:xlink="http://www.w3.org/1999/xlink" width="500" zoomAndPan="magnify" viewBox="0 0 375 374.999991" height="500" preserveAspectRatio="xMidYMid meet" version="1.2"><defs><clipPath id="05f366f904"><path d="M 200.453125 3.300781 L 370.703125 3.300781 L 370.703125 371.550781 L 200.453125 371.550781 Z M 200.453125 3.300781 "/></clipPath><clipPath id="e3ee84c84f"><path d="M 371.242188 123.445312 L 375 123.445312 L 375 371.703125 L 371.242188 371.703125 Z M 371.242188 123.445312 "/></clipPath><clipPath id="7d2aafde64"><path d="M 371.992188 123.445312 L 374.25 123.445312 C 374.664062 123.445312 375 123.78125 375 124.195312 L 375 370.949219 C 375 371.363281 374.664062 371.699219 374.25 371.699219 L 371.992188 371.699219 C 371.578125 371.699219 371.242188 371.363281 371.242188 370.949219 L 371.242188 124.195312 C 371.242188 123.78125 371.578125 123.445312 371.992188 123.445312 Z M 371.992188 123.445312 "/></clipPath><clipPath id="18ee116106"><path d="M 317.949219 332.230469 L 323.21875 332.230469 L 323.21875 337.5 L 317.949219 337.5 Z M 317.949219 332.230469 "/></clipPath><clipPath id="94c7217841"><path d="M 320.585938 332.230469 C 319.128906 332.230469 317.949219 333.410156 317.949219 334.867188 C 317.949219 336.320312 319.128906 337.5 320.585938 337.5 C 322.039062 337.5 323.21875 336.320312 323.21875 334.867188 C 323.21875 333.410156 322.039062 332.230469 320.585938 332.230469 Z M 320.585938 332.230469 "/></clipPath></defs><g id="f21cdb6459"><g clip-rule="nonzero" clip-path="url(#05f366f904)"><path style=" stroke:none;fill-rule:nonzero;fill:#eab464;fill-opacity:1;" d="M 464.007812 190.382812 C 464.664062 190.160156 465.320312 189.933594 465.980469 189.699219 C 472.253906 187.410156 478.683594 184.660156 485.554688 180.0625 C 486.390625 179.511719 487.289062 178.835938 488.140625 178.210938 C 488.957031 177.585938 489.621094 177.003906 490.363281 176.386719 C 491.777344 175.148438 493.152344 173.882812 494.445312 172.5625 C 497.050781 169.925781 499.425781 167.132812 501.574219 164.199219 C 505.847656 158.320312 509.230469 151.898438 511.554688 145.050781 C 513.871094 138.210938 515.152344 130.921875 515.019531 123.53125 C 514.953125 119.84375 514.5625 116.144531 513.769531 112.519531 C 513.371094 110.664062 512.902344 109.03125 512.386719 107.347656 C 511.855469 105.679688 511.253906 104.03125 510.589844 102.40625 C 507.914062 95.910156 504.050781 90.070312 499.792969 85.289062 C 495.527344 80.472656 490.929688 76.609375 486.449219 73.226562 C 477.476562 66.472656 468.855469 61.390625 461.75 55.140625 C 447.394531 42.597656 436.664062 24.421875 433.316406 3.9375 C 433.265625 3.628906 433.007812 3.378906 432.683594 3.359375 C 432.300781 3.328125 431.96875 3.617188 431.949219 3.996094 C 430.394531 25.027344 436.617188 47.277344 449.71875 65.796875 C 456.34375 75.152344 464.273438 82.78125 470.371094 90.261719 C 473.433594 93.992188 476.035156 97.652344 477.875 101.234375 C 479.726562 104.816406 480.792969 108.261719 481.234375 111.664062 C 481.332031 112.527344 481.414062 113.378906 481.441406 114.238281 C 481.464844 115.09375 481.484375 116.011719 481.417969 116.726562 C 481.324219 118.25 481.039062 119.757812 480.632812 121.242188 C 479.832031 124.207031 478.433594 127.105469 476.609375 129.761719 C 474.785156 132.414062 472.496094 134.820312 469.988281 136.785156 C 468.730469 137.761719 467.414062 138.628906 466.082031 139.367188 C 465.421875 139.742188 464.738281 140.066406 464.074219 140.375 C 463.753906 140.507812 463.363281 140.683594 463.105469 140.777344 L 462.398438 140.992188 C 460.308594 141.652344 456.898438 142.460938 453.191406 142.933594 C 449.460938 143.425781 445.347656 143.675781 441.1875 143.660156 C 439.824219 143.660156 438.449219 143.625 437.082031 143.566406 C 415.148438 130.589844 388.574219 123.414062 366.109375 122.859375 C 343.460938 122.300781 318.410156 130.105469 297.160156 142.902344 C 297.136719 142.902344 297.117188 142.910156 297.101562 142.910156 C 293.035156 143.410156 288.78125 143.652344 284.625 143.660156 C 280.464844 143.667969 276.351562 143.425781 272.621094 142.933594 C 268.914062 142.460938 265.503906 141.652344 263.414062 140.992188 L 262.707031 140.777344 C 262.441406 140.691406 262.0625 140.507812 261.738281 140.375 C 261.066406 140.066406 260.390625 139.742188 259.730469 139.367188 C 258.398438 138.628906 257.082031 137.761719 255.824219 136.785156 C 253.316406 134.820312 251.027344 132.414062 249.203125 129.761719 C 247.378906 127.105469 245.980469 124.207031 245.179688 121.242188 C 244.777344 119.757812 244.496094 118.25 244.394531 116.726562 C 244.328125 116.003906 244.347656 115.09375 244.371094 114.238281 C 244.40625 113.378906 244.480469 112.527344 244.578125 111.664062 C 245.019531 108.261719 246.085938 104.816406 247.9375 101.234375 C 249.777344 97.660156 252.382812 93.992188 255.441406 90.261719 C 261.539062 82.78125 269.46875 75.152344 276.09375 65.796875 C 289.195312 47.277344 295.417969 25.027344 293.867188 3.996094 C 293.84375 3.6875 293.609375 3.417969 293.285156 3.367188 C 292.910156 3.304688 292.554688 3.5625 292.496094 3.9375 C 289.152344 24.421875 278.417969 42.597656 264.0625 55.140625 C 256.957031 61.390625 248.335938 66.472656 239.363281 73.226562 C 234.890625 76.617188 230.292969 80.472656 226.019531 85.289062 C 221.761719 90.078125 217.898438 95.917969 215.222656 102.40625 C 214.558594 104.03125 213.957031 105.671875 213.425781 107.347656 C 212.914062 109.023438 212.441406 110.65625 212.042969 112.519531 C 211.25 116.136719 210.859375 119.835938 210.792969 123.53125 C 210.660156 130.921875 211.941406 138.203125 214.257812 145.050781 C 216.589844 151.898438 219.964844 158.320312 224.238281 164.199219 C 226.386719 167.132812 228.761719 169.925781 231.367188 172.5625 C 232.667969 173.882812 234.035156 175.140625 235.449219 176.386719 C 236.183594 176.996094 236.847656 177.585938 237.671875 178.210938 C 238.523438 178.828125 239.421875 179.511719 240.257812 180.0625 C 247.128906 184.660156 253.558594 187.410156 259.832031 189.699219 C 260.492188 189.933594 261.148438 190.160156 261.804688 190.382812 L 200.644531 190.382812 C 208.027344 207.25 226.179688 219.179688 247.421875 219.179688 C 258.007812 219.179688 267.820312 216.214844 275.917969 211.160156 C 300.066406 273.820312 328.246094 284.980469 328.414062 345.175781 C 328.015625 352.097656 330.015625 358.246094 334.554688 361.617188 C 341.875 367.042969 353.730469 370.90625 366.992188 371.132812 C 380.261719 371.363281 391.933594 367.851562 399.144531 362.519531 C 403.621094 359.203125 405.601562 352.980469 405.335938 345.964844 C 407.175781 287.648438 429.800781 273.210938 454.652344 211.890625 C 462.515625 216.5 471.886719 219.1875 481.949219 219.1875 C 503.191406 219.1875 521.34375 207.257812 528.730469 190.390625 L 464.007812 190.390625 Z M 464.007812 190.382812 "/></g><path style=" stroke:none;fill-rule:nonzero;fill:#ffffff;fill-opacity:1;" d="M 341.257812 339.894531 C 345.714844 340.433594 349.5 342.277344 352.628906 344.859375 C 355.761719 347.433594 357.910156 350.875 359.128906 354.421875 C 359.21875 354.6875 359.078125 354.972656 358.8125 355.070312 C 358.59375 355.144531 358.34375 355.046875 358.21875 354.863281 C 356.222656 351.855469 353.582031 349.433594 350.539062 348.03125 C 347.558594 346.609375 344.125 346.042969 341.257812 346.476562 C 339.4375 346.75 337.738281 345.5 337.46875 343.683594 C 337.195312 341.867188 338.445312 340.167969 340.261719 339.894531 C 340.566406 339.851562 340.859375 339.84375 341.144531 339.878906 Z M 341.257812 339.894531 "/><path style=" stroke:none;fill-rule:nonzero;fill:#ffffff;fill-opacity:1;" d="M 313.929688 252.617188 C 319.917969 256.132812 324.882812 261.007812 329.074219 266.464844 C 333.171875 271.996094 336.796875 277.949219 339.550781 284.289062 C 342.359375 290.597656 344.359375 297.226562 345.683594 303.921875 L 346.566406 308.957031 L 347.183594 314.019531 C 347.53125 317.394531 347.800781 320.769531 347.898438 324.148438 C 347.90625 324.5 347.632812 324.789062 347.28125 324.800781 C 346.972656 324.808594 346.707031 324.589844 346.640625 324.292969 L 344.5 314.476562 C 343.707031 311.230469 342.84375 308.015625 341.953125 304.832031 C 340.09375 298.476562 337.777344 292.3125 334.914062 286.4375 C 332.011719 280.582031 328.625 274.984375 324.664062 269.769531 C 320.800781 264.472656 316.695312 259.375 313.046875 253.527344 C 312.855469 253.226562 312.945312 252.824219 313.246094 252.632812 C 313.460938 252.492188 313.726562 252.5 313.929688 252.617188 Z M 313.929688 252.617188 "/><g clip-rule="nonzero" clip-path="url(#e3ee84c84f)"><g clip-rule="nonzero" clip-path="url(#7d2aafde64)"><path style=" stroke:none;fill-rule:nonzero;fill:#4056a1;fill-opacity:1;" d="M 371.242188 123.445312 L 375 123.445312 L 375 371.703125 L 371.242188 371.703125 Z M 371.242188 123.445312 "/></g></g><g clip-rule="nonzero" clip-path="url(#18ee116106)"><g clip-rule="nonzero" clip-path="url(#94c7217841)"><path style=" stroke:none;fill-rule:nonzero;fill:#4056a1;fill-opacity:1;" d="M 317.949219 332.230469 L 323.21875 332.230469 L 323.21875 337.5 L 317.949219 337.5 Z M 317.949219 332.230469 "/></g></g></g></svg>