<svg xmlns="http://www.w3.org/2000/svg" xmlns:xlink="http://www.w3.org/1999/xlink" width="500" zoomAndPan="magnify" viewBox="0 0 375 374.999991" height="500" preserveAspectRatio="xMidYMid meet" version="1.2"><defs><clipPath id="1c28d52efc"><path d="M 4.160156 4.160156 L 370.839844 4.160156 L 370.839844 370.839844 L 4.160156 370.839844 Z M 4.160156 4.160156 "/></clipPath><clipPath id="f324f726c0"><path d="M 187.5 4.160156 C 86.242188 4.160156 4.160156 86.242188 4.160156 187.5 C 4.160156 288.757812 86.242188 370.839844 187.5 370.839844 C 288.757812 370.839844 370.839844 288.757812 370.839844 187.5 C 370.839844 86.242188 288.757812 4.160156 187.5 4.160156 Z M 187.5 4.160156 "/></clipPath><clipPath id="cc5c2a0aa5"><path d="M 4.160156 4.160156 L 370.839844 4.160156 L 370.839844 370.839844 L 4.160156 370.839844 Z M 4.160156 4.160156 "/></clipPath><clipPath id="770c4ba24b"><path d="M 187.5 4.160156 C 86.242188 4.160156 4.160156 86.242188 4.160156 187.5 C 4.160156 288.753906 86.242188 370.839844 187.5 370.839844 C 288.753906 370.839844 370.839844 288.753906 370.839844 187.5 C 370.839844 86.242188 288.753906 4.160156 187.5 4.160156 Z M 187.5 4.160156 "/></clipPath><clipPath id="2b3ac70267"><path d="M 35.3125 36.058594 L 182.3125 36.058594 L 182.3125 354 L 35.3125 354 Z M 35.3125 36.058594 "/></clipPath><clipPath id="913479e06f"><path d="M 192.914062 36.058594 L 339.679688 36.058594 L 339.679688 354 L 192.914062 354 Z M 192.914062 36.058594 "/></clipPath><clipPath id="048142cec5"><path d="M 132.527344 122.226562 L 141.011719 122.226562 L 141.011719 130.714844 L 132.527344 130.714844 Z M 132.527344 122.226562 "/></clipPath><clipPath id="4f3474f1bc"><path d="M 136.769531 122.226562 C 134.425781 122.226562 132.527344 124.128906 132.527344 126.472656 C 132.527344 128.816406 134.425781 130.714844 136.769531 130.714844 C 139.113281 130.714844 141.011719 128.816406 141.011719 126.472656 C 141.011719 124.128906 139.113281 122.226562 136.769531 122.226562 Z M 136.769531 122.226562 "/></clipPath></defs><g id="e6b47080d7"><g clip-rule="nonzero" clip-path="url(#1c28d52efc)"><g clip-rule="nonzero" clip-path="url(#f324f726c0)"><path style=" stroke:none;fill-rule:nonzero;fill:#f8f7ff;fill-opacity:1;" d="M 4.160156 4.160156 L 370.839844 4.160156 L 370.839844 370.839844 L 4.160156 370.839844 Z M 4.160156 4.160156 "/></g></g><g clip-rule="nonzero" clip-path="url(#cc5c2a0aa5)"><g clip-rule="nonzero" clip-path="url(#770c4ba24b)"><path style="fill:none;stroke-width:8;stroke-linecap:butt;stroke-linejoin:miter;stroke:#4056a1;stroke-opacity:1;stroke-miterlimit:4;" d="M 244.45391 0.000742564 C 109.443475 0.000742564 0.000752884 109.443465 0.000752884 244.453899 C 0.000752884 379.459125 109.443475 488.907056 244.45391 488.907056 C 379.459135 488.907056 488.907066 379.459125 488.907066 244.453899 C 488.907066 109.443465 379.459135 0.000742564 244.45391 0.000742564 Z M 244.45391 0.000742564 " transform="matrix(0.75,0,0,0.75,4.159592,4.159599)"/></g></g><g clip-rule="nonzero" clip-path="url(#2b3ac70267)"><path style=" stroke:none;fill-rule:nonzero;fill:#eab464;fill-opacity:1;" d="M 262.765625 197.519531 C 263.332031 197.328125 263.898438 197.132812 264.46875 196.929688 C 269.882812 194.957031 275.433594 192.582031 281.359375 188.613281 C 282.085938 188.136719 282.859375 187.554688 283.59375 187.015625 C 284.300781 186.472656 284.871094 185.972656 285.511719 185.441406 C 286.730469 184.375 287.917969 183.28125 289.035156 182.136719 C 291.28125 179.867188 293.332031 177.453125 295.1875 174.921875 C 298.875 169.847656 301.792969 164.308594 303.800781 158.398438 C 305.800781 152.492188 306.90625 146.203125 306.789062 139.824219 C 306.734375 136.644531 306.398438 133.449219 305.710938 130.320312 C 305.367188 128.71875 304.960938 127.3125 304.519531 125.859375 C 304.0625 124.417969 303.539062 122.996094 302.96875 121.59375 C 300.660156 115.988281 297.324219 110.945312 293.648438 106.820312 C 289.96875 102.664062 286 99.328125 282.136719 96.410156 C 274.390625 90.582031 266.949219 86.195312 260.820312 80.800781 C 248.425781 69.976562 239.164062 54.289062 236.277344 36.613281 C 236.234375 36.34375 236.011719 36.128906 235.730469 36.109375 C 235.402344 36.085938 235.117188 36.332031 235.097656 36.664062 C 233.757812 54.8125 239.128906 74.015625 250.433594 89.996094 C 256.152344 98.074219 262.996094 104.65625 268.257812 111.113281 C 270.898438 114.328125 273.144531 117.492188 274.734375 120.582031 C 276.332031 123.675781 277.253906 126.644531 277.632812 129.582031 C 277.71875 130.328125 277.785156 131.0625 277.8125 131.804688 C 277.832031 132.542969 277.851562 133.335938 277.792969 133.953125 C 277.710938 135.265625 277.464844 136.566406 277.113281 137.847656 C 276.421875 140.40625 275.214844 142.910156 273.640625 145.199219 C 272.066406 147.492188 270.09375 149.566406 267.929688 151.261719 C 266.84375 152.105469 265.707031 152.855469 264.558594 153.492188 C 263.984375 153.8125 263.394531 154.09375 262.824219 154.359375 C 262.546875 154.472656 262.207031 154.625 261.988281 154.710938 L 261.378906 154.894531 C 259.574219 155.464844 256.628906 156.164062 253.429688 156.570312 C 250.210938 156.996094 246.664062 157.210938 243.070312 157.199219 C 241.894531 157.199219 240.707031 157.164062 239.527344 157.113281 C 220.597656 145.917969 197.664062 139.722656 178.277344 139.246094 C 158.730469 138.761719 137.109375 145.5 118.769531 156.542969 C 118.75 156.542969 118.730469 156.550781 118.71875 156.550781 C 115.210938 156.980469 111.539062 157.191406 107.953125 157.199219 C 104.359375 157.203125 100.8125 156.996094 97.59375 156.570312 C 94.394531 156.164062 91.449219 155.464844 89.644531 154.894531 L 89.035156 154.710938 C 88.808594 154.632812 88.476562 154.472656 88.199219 154.359375 C 87.621094 154.09375 87.035156 153.8125 86.464844 153.492188 C 85.316406 152.855469 84.179688 152.105469 83.09375 151.261719 C 80.929688 149.566406 78.957031 147.492188 77.382812 145.199219 C 75.808594 142.910156 74.601562 140.40625 73.910156 137.847656 C 73.558594 136.566406 73.320312 135.265625 73.230469 133.953125 C 73.171875 133.328125 73.191406 132.542969 73.210938 131.804688 C 73.242188 131.0625 73.304688 130.328125 73.390625 129.582031 C 73.769531 126.644531 74.691406 123.675781 76.289062 120.582031 C 77.878906 117.496094 80.125 114.328125 82.765625 111.113281 C 88.027344 104.65625 94.871094 98.074219 100.589844 90 C 111.894531 74.015625 117.265625 54.8125 115.925781 36.664062 C 115.90625 36.394531 115.703125 36.160156 115.425781 36.117188 C 115.101562 36.066406 114.796875 36.289062 114.746094 36.613281 C 111.859375 54.289062 102.597656 69.976562 90.203125 80.800781 C 84.074219 86.195312 76.632812 90.582031 68.886719 96.410156 C 65.027344 99.335938 61.0625 102.664062 57.375 106.820312 C 53.699219 110.953125 50.363281 115.992188 48.054688 121.59375 C 47.484375 122.996094 46.960938 124.410156 46.503906 125.859375 C 46.0625 127.304688 45.65625 128.714844 45.3125 130.320312 C 44.625 133.445312 44.289062 136.636719 44.234375 139.824219 C 44.117188 146.203125 45.222656 152.488281 47.222656 158.398438 C 49.234375 164.308594 52.148438 169.847656 55.835938 174.921875 C 57.691406 177.453125 59.742188 179.867188 61.988281 182.136719 C 63.113281 183.28125 64.292969 184.367188 65.511719 185.441406 C 66.144531 185.964844 66.71875 186.472656 67.429688 187.015625 C 68.164062 187.546875 68.9375 188.136719 69.664062 188.613281 C 75.589844 192.582031 81.140625 194.957031 86.554688 196.929688 C 87.125 197.132812 87.691406 197.328125 88.257812 197.519531 L 35.472656 197.519531 C 41.847656 212.074219 57.511719 222.371094 75.84375 222.371094 C 84.980469 222.371094 93.449219 219.8125 100.4375 215.453125 C 121.277344 269.53125 145.597656 279.160156 145.742188 331.113281 C 145.398438 337.085938 147.125 342.394531 151.042969 345.300781 C 157.359375 349.984375 167.59375 353.316406 179.039062 353.515625 C 190.488281 353.710938 200.5625 350.683594 206.785156 346.082031 C 210.652344 343.21875 212.359375 337.847656 212.128906 331.792969 C 213.71875 281.464844 233.242188 269.003906 254.691406 216.082031 C 261.480469 220.0625 269.566406 222.378906 278.25 222.378906 C 296.582031 222.378906 312.25 212.082031 318.625 197.527344 L 262.765625 197.527344 Z M 262.765625 197.519531 "/></g><path style=" stroke:none;fill-rule:nonzero;fill:#ffffff;fill-opacity:1;" d="M 156.828125 326.554688 C 160.671875 327.019531 163.941406 328.609375 166.640625 330.839844 C 169.34375 333.0625 171.199219 336.03125 172.253906 339.089844 C 172.328125 339.320312 172.207031 339.566406 171.980469 339.652344 C 171.789062 339.714844 171.574219 339.632812 171.464844 339.472656 C 169.746094 336.875 167.464844 334.789062 164.835938 333.574219 C 162.265625 332.351562 159.300781 331.863281 156.828125 332.234375 C 155.257812 332.472656 153.792969 331.390625 153.558594 329.824219 C 153.324219 328.253906 154.402344 326.789062 155.96875 326.554688 C 156.230469 326.515625 156.484375 326.511719 156.730469 326.542969 Z M 156.828125 326.554688 "/><path style=" stroke:none;fill-rule:nonzero;fill:#ffffff;fill-opacity:1;" d="M 133.242188 251.230469 C 138.410156 254.265625 142.695312 258.472656 146.3125 263.183594 C 149.851562 267.957031 152.980469 273.09375 155.355469 278.5625 C 157.777344 284.011719 159.503906 289.730469 160.648438 295.507812 L 161.410156 299.855469 L 161.941406 304.222656 C 162.242188 307.136719 162.476562 310.050781 162.558594 312.964844 C 162.566406 313.269531 162.332031 313.515625 162.027344 313.527344 C 161.757812 313.535156 161.53125 313.34375 161.472656 313.089844 L 159.625 304.617188 C 158.941406 301.816406 158.199219 299.042969 157.429688 296.292969 C 155.824219 290.808594 153.824219 285.488281 151.355469 280.417969 C 148.847656 275.363281 145.925781 270.535156 142.503906 266.03125 C 139.171875 261.460938 135.628906 257.0625 132.480469 252.015625 C 132.316406 251.757812 132.394531 251.40625 132.652344 251.242188 C 132.835938 251.121094 133.066406 251.128906 133.242188 251.230469 Z M 133.242188 251.230469 "/><g style="fill:#eab464;fill-opacity:1;"><g transform="translate(104.406955, 129.902796)"><path style="stroke:none" d="M 15.109375 0 L 2.734375 0 C 2.347656 0 2.15625 -0.175781 2.15625 -0.53125 L 2.15625 -2.828125 C 2.15625 -3.179688 2.347656 -3.359375 2.734375 -3.359375 L 6.140625 -3.359375 L 6.140625 -28.828125 L 2.734375 -28.828125 C 2.347656 -28.828125 2.15625 -29.007812 2.15625 -29.375 L 2.15625 -31.65625 C 2.15625 -32.019531 2.347656 -32.203125 2.734375 -32.203125 L 25.734375 -32.203125 C 26.128906 -32.203125 26.328125 -32.019531 26.328125 -31.65625 L 26.328125 -24.4375 C 26.328125 -24.050781 26.128906 -23.859375 25.734375 -23.859375 L 23.3125 -23.859375 C 22.957031 -23.859375 22.78125 -24.050781 22.78125 -24.4375 L 22.78125 -28.828125 L 10.046875 -28.828125 L 10.046875 -17.71875 L 20.578125 -17.71875 C 20.972656 -17.71875 21.171875 -17.535156 21.171875 -17.171875 L 21.171875 -14.890625 C 21.171875 -14.523438 20.972656 -14.34375 20.578125 -14.34375 L 10.046875 -14.34375 L 10.046875 -3.359375 L 15.109375 -3.359375 C 15.472656 -3.359375 15.65625 -3.179688 15.65625 -2.828125 L 15.65625 -0.53125 C 15.65625 -0.175781 15.472656 0 15.109375 0 Z M 15.109375 0 "/></g></g><g style="fill:#eab464;fill-opacity:1;"><g transform="translate(132.880116, 129.902796)"><path style="stroke:none" d=""/></g></g><g style="fill:#eab464;fill-opacity:1;"><g transform="translate(146.914916, 129.902796)"><path style="stroke:none" d="M 14.4375 0 L 2.734375 0 C 2.347656 0 2.15625 -0.175781 2.15625 -0.53125 L 2.15625 -2.828125 C 2.15625 -3.179688 2.347656 -3.359375 2.734375 -3.359375 L 6.140625 -3.359375 L 6.140625 -28.828125 L 2.734375 -28.828125 C 2.347656 -28.828125 2.15625 -29.007812 2.15625 -29.375 L 2.15625 -31.65625 C 2.15625 -32.019531 2.347656 -32.203125 2.734375 -32.203125 L 16.546875 -32.203125 C 19.710938 -32.203125 22.304688 -31.28125 24.328125 -29.4375 C 26.347656 -27.601562 27.359375 -25.125 27.359375 -22 C 27.359375 -18.875 26.367188 -16.453125 24.390625 -14.734375 C 22.421875 -13.015625 19.640625 -12.15625 16.046875 -12.15625 L 10.046875 -12.15625 L 10.046875 -3.359375 L 14.4375 -3.359375 C 14.800781 -3.359375 14.984375 -3.179688 14.984375 -2.828125 L 14.984375 -0.53125 C 14.984375 -0.175781 14.800781 0 14.4375 0 Z M 10.046875 -15.34375 L 15.875 -15.34375 C 20.894531 -15.34375 23.40625 -17.550781 23.40625 -21.96875 C 23.40625 -24.269531 22.691406 -25.988281 21.265625 -27.125 C 19.847656 -28.257812 18.066406 -28.828125 15.921875 -28.828125 L 10.046875 -28.828125 Z M 10.046875 -15.34375 "/></g></g><g style="fill:#eab464;fill-opacity:1;"><g transform="translate(176.419381, 129.902796)"><path style="stroke:none" d="M 33.359375 -16.25 C 33.359375 -11.332031 31.882812 -7.34375 28.9375 -4.28125 C 26 -1.21875 22.296875 0.3125 17.828125 0.3125 C 13.359375 0.3125 9.628906 -1.234375 6.640625 -4.328125 C 3.648438 -7.421875 2.15625 -11.410156 2.15625 -16.296875 C 2.15625 -21.179688 3.691406 -25.097656 6.765625 -28.046875 C 9.847656 -30.992188 13.523438 -32.46875 17.796875 -32.46875 C 22.078125 -32.46875 25.738281 -30.992188 28.78125 -28.046875 C 31.832031 -25.097656 33.359375 -21.164062 33.359375 -16.25 Z M 9.796875 -6.734375 C 12.085938 -4.453125 14.753906 -3.3125 17.796875 -3.3125 C 20.847656 -3.3125 23.507812 -4.453125 25.78125 -6.734375 C 28.050781 -9.023438 29.1875 -12.164062 29.1875 -16.15625 C 29.1875 -20.15625 28.03125 -23.28125 25.71875 -25.53125 C 23.40625 -27.789062 20.765625 -28.921875 17.796875 -28.921875 C 14.835938 -28.921875 12.191406 -27.789062 9.859375 -25.53125 C 7.535156 -23.28125 6.375 -20.15625 6.375 -16.15625 C 6.375 -12.164062 7.515625 -9.023438 9.796875 -6.734375 Z M 9.796875 -6.734375 "/></g></g><g style="fill:#eab464;fill-opacity:1;"><g transform="translate(211.977193, 129.902796)"><path style="stroke:none" d="M 34.078125 0 L 23.28125 0 C 22.914062 0 22.734375 -0.175781 22.734375 -0.53125 L 22.734375 -2.828125 C 22.734375 -3.179688 22.914062 -3.359375 23.28125 -3.359375 L 26.734375 -3.359375 L 26.734375 -14.34375 L 10.046875 -14.34375 L 10.046875 -3.359375 L 13.5 -3.359375 C 13.882812 -3.359375 14.078125 -3.179688 14.078125 -2.828125 L 14.078125 -0.53125 C 14.078125 -0.175781 13.882812 0 13.5 0 L 2.734375 0 C 2.347656 0 2.15625 -0.175781 2.15625 -0.53125 L 2.15625 -2.828125 C 2.15625 -3.179688 2.347656 -3.359375 2.734375 -3.359375 L 6.140625 -3.359375 L 6.140625 -28.828125 L 2.734375 -28.828125 C 2.347656 -28.828125 2.15625 -29.007812 2.15625 -29.375 L 2.15625 -31.65625 C 2.15625 -32.019531 2.347656 -32.203125 2.734375 -32.203125 L 13.5 -32.203125 C 13.882812 -32.203125 14.078125 -32.019531 14.078125 -31.65625 L 14.078125 -29.375 C 14.078125 -29.007812 13.882812 -28.828125 13.5 -28.828125 L 10.046875 -28.828125 L 10.046875 -17.625 L 26.734375 -17.625 L 26.734375 -28.828125 L 23.28125 -28.828125 C 22.914062 -28.828125 22.734375 -29.007812 22.734375 -29.375 L 22.734375 -31.65625 C 22.734375 -32.019531 22.914062 -32.203125 23.28125 -32.203125 L 34.078125 -32.203125 C 34.441406 -32.203125 34.625 -32.019531 34.625 -31.65625 L 34.625 -29.375 C 34.625 -29.007812 34.441406 -28.828125 34.078125 -28.828125 L 30.625 -28.828125 L 30.625 -3.359375 L 34.078125 -3.359375 C 34.441406 -3.359375 34.625 -3.179688 34.625 -2.828125 L 34.625 -0.53125 C 34.625 -0.175781 34.441406 0 34.078125 0 Z M 34.078125 0 "/></g></g><g style="fill:#eab464;fill-opacity:1;"><g transform="translate(248.745674, 129.902796)"><path style="stroke:none" d="M 33.359375 -16.25 C 33.359375 -11.332031 31.882812 -7.34375 28.9375 -4.28125 C 26 -1.21875 22.296875 0.3125 17.828125 0.3125 C 13.359375 0.3125 9.628906 -1.234375 6.640625 -4.328125 C 3.648438 -7.421875 2.15625 -11.410156 2.15625 -16.296875 C 2.15625 -21.179688 3.691406 -25.097656 6.765625 -28.046875 C 9.847656 -30.992188 13.523438 -32.46875 17.796875 -32.46875 C 22.078125 -32.46875 25.738281 -30.992188 28.78125 -28.046875 C 31.832031 -25.097656 33.359375 -21.164062 33.359375 -16.25 Z M 9.796875 -6.734375 C 12.085938 -4.453125 14.753906 -3.3125 17.796875 -3.3125 C 20.847656 -3.3125 23.507812 -4.453125 25.78125 -6.734375 C 28.050781 -9.023438 29.1875 -12.164062 29.1875 -16.15625 C 29.1875 -20.15625 28.03125 -23.28125 25.71875 -25.53125 C 23.40625 -27.789062 20.765625 -28.921875 17.796875 -28.921875 C 14.835938 -28.921875 12.191406 -27.789062 9.859375 -25.53125 C 7.535156 -23.28125 6.375 -20.15625 6.375 -16.15625 C 6.375 -12.164062 7.515625 -9.023438 9.796875 -6.734375 Z M 9.796875 -6.734375 "/></g></g><g clip-rule="nonzero" clip-path="url(#913479e06f)"><path style=" stroke:none;fill-rule:nonzero;fill:#eab464;fill-opacity:1;" d="M 112.226562 197.519531 C 111.664062 197.328125 111.097656 197.132812 110.527344 196.929688 C 105.113281 194.957031 99.5625 192.582031 93.632812 188.613281 C 92.910156 188.136719 92.136719 187.554688 91.398438 187.015625 C 90.695312 186.472656 90.125 185.972656 89.484375 185.441406 C 88.265625 184.375 87.078125 183.28125 85.960938 182.136719 C 83.710938 179.867188 81.664062 177.453125 79.808594 174.921875 C 76.121094 169.847656 73.199219 164.308594 71.195312 158.398438 C 69.195312 152.492188 68.089844 146.203125 68.203125 139.824219 C 68.261719 136.644531 68.597656 133.449219 69.285156 130.320312 C 69.625 128.71875 70.03125 127.3125 70.476562 125.859375 C 70.933594 124.417969 71.453125 122.996094 72.027344 121.59375 C 74.335938 115.988281 77.667969 110.945312 81.34375 106.820312 C 85.027344 102.664062 88.992188 99.328125 92.859375 96.410156 C 100.605469 90.582031 108.042969 86.195312 114.175781 80.800781 C 126.566406 69.976562 135.828125 54.289062 138.71875 36.613281 C 138.761719 36.34375 138.984375 36.128906 139.261719 36.109375 C 139.59375 36.085938 139.878906 36.332031 139.898438 36.664062 C 141.238281 54.8125 135.867188 74.015625 124.5625 89.996094 C 118.84375 98.074219 112 104.65625 106.738281 111.113281 C 104.097656 114.328125 101.847656 117.492188 100.261719 120.582031 C 98.660156 123.675781 97.742188 126.644531 97.359375 129.582031 C 97.277344 130.328125 97.207031 131.0625 97.183594 131.804688 C 97.164062 132.542969 97.144531 133.335938 97.203125 133.953125 C 97.285156 135.265625 97.53125 136.566406 97.882812 137.847656 C 98.574219 140.40625 99.777344 142.910156 101.351562 145.199219 C 102.929688 147.492188 104.902344 149.566406 107.066406 151.261719 C 108.152344 152.105469 109.289062 152.855469 110.4375 153.492188 C 111.007812 153.8125 111.597656 154.09375 112.171875 154.359375 C 112.449219 154.472656 112.785156 154.625 113.007812 154.710938 L 113.617188 154.894531 C 115.421875 155.464844 118.367188 156.164062 121.566406 156.570312 C 124.785156 156.996094 128.332031 157.210938 131.925781 157.199219 C 133.097656 157.199219 134.285156 157.164062 135.46875 157.113281 C 154.398438 145.917969 177.332031 139.722656 196.71875 139.246094 C 216.265625 138.761719 237.886719 145.5 256.222656 156.542969 C 256.242188 156.542969 256.261719 156.550781 256.273438 156.550781 C 259.785156 156.980469 263.453125 157.191406 267.042969 157.199219 C 270.632812 157.203125 274.183594 156.996094 277.402344 156.570312 C 280.601562 156.164062 283.546875 155.464844 285.347656 154.894531 L 285.957031 154.710938 C 286.1875 154.632812 286.515625 154.472656 286.796875 154.359375 C 287.375 154.09375 287.957031 153.8125 288.527344 153.492188 C 289.679688 152.855469 290.816406 152.105469 291.898438 151.261719 C 294.066406 149.566406 296.039062 147.492188 297.613281 145.199219 C 299.1875 142.910156 300.394531 140.40625 301.085938 137.847656 C 301.433594 136.566406 301.675781 135.265625 301.765625 133.953125 C 301.820312 133.328125 301.804688 132.542969 301.785156 131.804688 C 301.753906 131.0625 301.6875 130.328125 301.605469 129.582031 C 301.226562 126.644531 300.304688 123.675781 298.703125 120.582031 C 297.117188 117.496094 294.871094 114.328125 292.230469 111.113281 C 286.96875 104.65625 280.125 98.074219 274.40625 90 C 263.097656 74.015625 257.730469 54.8125 259.070312 36.664062 C 259.085938 36.394531 259.289062 36.160156 259.570312 36.117188 C 259.894531 36.066406 260.199219 36.289062 260.25 36.613281 C 263.136719 54.289062 272.398438 69.976562 284.789062 80.800781 C 290.921875 86.195312 298.363281 90.582031 306.105469 96.410156 C 309.964844 99.335938 313.933594 102.664062 317.621094 106.820312 C 321.296875 110.953125 324.628906 115.992188 326.941406 121.59375 C 327.511719 122.996094 328.03125 124.410156 328.488281 125.859375 C 328.933594 127.304688 329.339844 128.714844 329.683594 130.320312 C 330.367188 133.445312 330.703125 136.636719 330.761719 139.824219 C 330.875 146.203125 329.773438 152.488281 327.773438 158.398438 C 325.761719 164.308594 322.847656 169.847656 319.15625 174.921875 C 317.304688 177.453125 315.253906 179.867188 313.007812 182.136719 C 311.882812 183.28125 310.703125 184.367188 309.484375 185.441406 C 308.847656 185.964844 308.277344 186.472656 307.566406 187.015625 C 306.832031 187.546875 306.054688 188.136719 305.332031 188.613281 C 299.402344 192.582031 293.855469 194.957031 288.441406 196.929688 C 287.867188 197.132812 287.304688 197.328125 286.738281 197.519531 L 339.523438 197.519531 C 333.148438 212.074219 317.480469 222.371094 299.148438 222.371094 C 290.015625 222.371094 281.546875 219.8125 274.558594 215.453125 C 253.71875 269.53125 229.398438 279.160156 229.253906 331.113281 C 229.59375 337.085938 227.867188 342.394531 223.953125 345.300781 C 217.636719 349.984375 207.402344 353.316406 195.957031 353.515625 C 184.503906 353.710938 174.429688 350.683594 168.210938 346.082031 C 164.34375 343.21875 162.636719 337.847656 162.863281 331.792969 C 161.277344 281.464844 141.75 269.003906 120.300781 216.082031 C 113.515625 220.0625 105.429688 222.378906 96.746094 222.378906 C 78.410156 222.378906 62.746094 212.082031 56.371094 197.527344 L 112.226562 197.527344 Z M 112.226562 197.519531 "/></g><path style=" stroke:none;fill-rule:nonzero;fill:#ffffff;fill-opacity:1;" d="M 218.167969 326.554688 C 214.320312 327.019531 211.050781 328.609375 208.355469 330.839844 C 205.648438 333.0625 203.796875 336.03125 202.742188 339.089844 C 202.667969 339.320312 202.789062 339.566406 203.015625 339.652344 C 203.207031 339.714844 203.421875 339.632812 203.53125 339.472656 C 205.25 336.875 207.53125 334.789062 210.15625 333.574219 C 212.726562 332.351562 215.691406 331.863281 218.167969 332.234375 C 219.738281 332.472656 221.203125 331.390625 221.4375 329.824219 C 221.671875 328.253906 220.59375 326.789062 219.027344 326.554688 C 218.765625 326.515625 218.511719 326.511719 218.265625 326.542969 Z M 218.167969 326.554688 "/><path style=" stroke:none;fill-rule:nonzero;fill:#ffffff;fill-opacity:1;" d="M 241.75 251.230469 C 236.582031 254.265625 232.300781 258.472656 228.679688 263.183594 C 225.144531 267.957031 222.015625 273.09375 219.640625 278.5625 C 217.214844 284.011719 215.488281 289.730469 214.347656 295.507812 L 213.585938 299.855469 L 213.050781 304.222656 C 212.753906 307.136719 212.519531 310.050781 212.4375 312.964844 C 212.429688 313.269531 212.664062 313.515625 212.96875 313.527344 C 213.234375 313.535156 213.464844 313.34375 213.523438 313.089844 L 215.367188 304.617188 C 216.054688 301.816406 216.796875 299.042969 217.566406 296.292969 C 219.171875 290.808594 221.171875 285.488281 223.640625 280.417969 C 226.148438 275.363281 229.066406 270.535156 232.488281 266.03125 C 235.820312 261.460938 239.363281 257.0625 242.511719 252.015625 C 242.679688 251.757812 242.601562 251.40625 242.339844 251.242188 C 242.15625 251.121094 241.929688 251.128906 241.75 251.230469 Z M 241.75 251.230469 "/><path style="fill:none;stroke-width:8;stroke-linecap:butt;stroke-linejoin:miter;stroke:#4056a1;stroke-opacity:1;stroke-miterlimit:4;" d="M 0.000949881 4.000661 L 284.058261 4.000661 " transform="matrix(0,0.749876,-0.749876,0,190.496094,140.753194)"/><g clip-rule="nonzero" clip-path="url(#048142cec5)"><g clip-rule="nonzero" clip-path="url(#4f3474f1bc)"><path style=" stroke:none;fill-rule:nonzero;fill:#4056a1;fill-opacity:1;" d="M 132.527344 122.226562 L 141.011719 122.226562 L 141.011719 130.714844 L 132.527344 130.714844 Z M 132.527344 122.226562 "/></g></g></g></svg>